<svg width="28" height="28" viewBox="0 0 28 28" fill="none" xmlns="http://www.w3.org/2000/svg">
<g id="globe-02">
<path id="Icon" d="M13.9999 2.33331C16.9181 5.52806 18.5765 9.67402 18.6666 14C18.5765 18.3259 16.9181 22.4719 13.9999 25.6666M13.9999 2.33331C11.0818 5.52806 9.42337 9.67402 9.33325 14C9.42337 18.3259 11.0818 22.4719 13.9999 25.6666M13.9999 2.33331C7.5566 2.33331 2.33325 7.55666 2.33325 14C2.33325 20.4433 7.5566 25.6666 13.9999 25.6666M13.9999 2.33331C20.4432 2.33331 25.6666 7.55666 25.6666 14C25.6666 20.4433 20.4432 25.6666 13.9999 25.6666M2.91661 10.5H25.0833M2.91659 17.5H25.0833" stroke="black" stroke-width="2.33333" stroke-linecap="round" stroke-linejoin="round"/>
</g>
</svg>
