<svg width="28" height="28" viewBox="0 0 28 28" fill="none" xmlns="http://www.w3.org/2000/svg">
<g id="Frame">
<path id="Vector" fill-rule="evenodd" clip-rule="evenodd" d="M11.174 19.754C9.57158 22.2096 6.88634 25.3172 3.3133 25.3172C1.62421 25.3172 5.39348e-05 24.622 1.29825e-09 21.6015C-0.000134833 13.9086 10.5025 2.00016 20.2473 2C25.7909 1.99989 28 5.84613 28 10.214C28 15.8205 24.3619 22.2312 20.7457 22.2312C19.598 22.2312 19.0349 21.6009 19.0349 20.6016C19.0349 20.3408 19.078 20.0582 19.1649 19.754C17.9303 21.8617 15.5484 23.8179 13.3179 23.8179C11.6938 23.8179 10.8709 22.7964 10.8709 21.362C10.8709 20.8405 10.9792 20.2974 11.174 19.754ZM18.4071 7.91486C17.525 7.91642 16.9237 8.66585 16.9256 9.73498C16.9274 10.8041 17.5315 11.5728 18.4136 11.5713C19.2744 11.5697 19.8755 10.7989 19.8736 9.72977C19.8717 8.66065 19.2679 7.91335 18.4071 7.91486ZM23.0861 7.90976C22.204 7.91132 21.6027 8.66076 21.6046 9.72988C21.6064 10.799 22.2102 11.5677 23.0926 11.5662C23.9534 11.5647 24.5545 10.7938 24.5526 9.72468C24.5507 8.65555 23.9469 7.90825 23.0861 7.90976Z" fill="#3C315B"/>
</g>
</svg>
