<svg width="28" height="28" viewBox="0 0 28 28" fill="none" xmlns="http://www.w3.org/2000/svg">
<g id="Trust 1" clip-path="url(#clip0_85_16958)">
<g id="Clip path group">
<path id="Vector" d="M27.7416 0H0.172363V28H27.7416V0Z" fill="black"/>
<g id="Group">
<path id="Vector_2" d="M13.957 28C21.57 28 27.7416 21.732 27.7416 14C27.7416 6.26802 21.57 0 13.957 0C6.34395 0 0.172363 6.26802 0.172363 14C0.172363 21.732 6.34395 28 13.957 28Z" fill="#3375BB"/>
<path id="Vector_3" d="M14.0547 6.125C16.779 8.4357 19.903 8.29321 20.7956 8.29321C20.6003 21.4347 19.1127 18.8288 14.0547 22.5137C8.99682 18.8288 7.51851 21.4347 7.32324 8.29321C8.20653 8.29321 11.3305 8.4357 14.0547 6.125Z" stroke="white" stroke-width="1.72308" stroke-miterlimit="10" stroke-linecap="round" stroke-linejoin="round"/>
</g>
</g>
</g>
<defs>
<clipPath id="clip0_85_16958">
<rect width="28" height="28" fill="white"/>
</clipPath>
</defs>
</svg>
