<svg width="28" height="28" viewBox="0 0 28 28" fill="none" xmlns="http://www.w3.org/2000/svg">
<g id="Safe Logo">
<path id="Vector" d="M25.5707 13.9917H22.6254C21.7458 13.9917 21.033 14.7264 21.033 15.6331V20.0397C21.033 20.9464 20.3202 21.6811 19.4406 21.6811H7.72334C6.84367 21.6811 6.13086 22.4158 6.13086 23.3226V26.3586C6.13086 27.2653 6.84367 28 7.72334 28H20.1188C20.9985 28 21.7011 27.2653 21.7011 26.3586V23.9227C21.7011 23.0161 22.4139 22.3728 23.2935 22.3728H25.5701C26.4497 22.3728 27.1625 21.6381 27.1625 20.7313V15.6141C27.1625 14.7074 26.4503 13.9917 25.5707 13.9917Z" fill="#232323"/>
<path id="Vector_2" d="M6.13007 7.96038C6.13007 7.05362 6.84289 6.31888 7.72256 6.31888H19.4327C20.3123 6.31888 21.0251 5.58414 21.0251 4.67747V1.64146C21.0251 0.734722 20.3123 0 19.4327 0H7.04369C6.16411 0 5.45129 0.734722 5.45129 1.64146V3.98082C5.45129 4.8875 4.73857 5.62224 3.8589 5.62224H1.59242C0.71277 5.62224 0 6.35698 0 7.26374V12.3865C0 13.2933 0.71575 13.9911 1.5954 13.9911H4.54064C5.42031 13.9911 6.13312 13.2564 6.13312 12.3497L6.13007 7.96038Z" fill="#232323"/>
<path id="Vector_3" d="M12.1953 10.8002H15.0243C15.9463 10.8002 16.6943 11.5717 16.6943 12.5215V15.4377C16.6943 16.388 15.9457 17.1589 15.0243 17.1589H12.1953C11.2733 17.1589 10.5254 16.3874 10.5254 15.4377V12.5215C10.5254 11.5711 11.2739 10.8002 12.1953 10.8002Z" fill="#232323"/>
</g>
</svg>
