<svg width="28" height="28" viewBox="0 0 28 28" fill="none" xmlns="http://www.w3.org/2000/svg">
<g id="Logo">
<g id="Group 1">
<path id="Vector" d="M26.6184 0.626709L15.6772 8.62977L17.7164 3.91564L26.6184 0.626709Z" fill="#E27625"/>
<path id="Vector_2" d="M1.40283 0.626709L12.2343 8.69555L10.3048 3.91563L1.40283 0.626709Z" fill="#E27625"/>
<path id="Vector_3" d="M22.6932 19.1755L19.7771 23.5827L26.004 25.2711L27.802 19.2852L22.6932 19.1755Z" fill="#E27625"/>
<path id="Vector_4" d="M0.240967 19.2852L2.01697 25.2711L8.22204 23.5827L5.3278 19.1755L0.240967 19.2852Z" fill="#E27625"/>
<path id="Vector_5" d="M7.89353 11.7648L6.16138 14.3302L12.3226 14.6153L12.1253 8.05933L7.89353 11.7648Z" fill="#E27625"/>
<path id="Vector_6" d="M20.1283 11.7645L15.8307 7.97131L15.6772 14.615L21.8604 14.3299L20.1283 11.7645Z" fill="#E27625"/>
<path id="Vector_7" d="M8.22192 23.584L11.9713 21.808L8.74815 19.3303L8.22192 23.584Z" fill="#E27625"/>
<path id="Vector_8" d="M16.0503 21.808L19.7777 23.584L19.2734 19.3303L16.0503 21.808Z" fill="#E27625"/>
<path id="Vector_9" d="M19.7777 23.5844L16.0503 21.8083L16.3573 24.1983L16.3134 25.2069L19.7777 23.5844Z" fill="#D7C1B3"/>
<path id="Vector_10" d="M8.22192 23.5844L11.6862 25.2069L11.6643 24.1983L11.9713 21.8083L8.22192 23.5844Z" fill="#D7C1B3"/>
<path id="Vector_11" d="M11.752 17.7522L8.6604 16.8533L10.853 15.8666L11.752 17.7522Z" fill="#2F343B"/>
<path id="Vector_12" d="M16.2695 17.7522L17.1685 15.8666L19.3611 16.8533L16.2695 17.7522Z" fill="#2F343B"/>
<path id="Vector_13" d="M8.2226 23.5827L8.77079 19.1755L5.32837 19.2852L8.2226 23.5827Z" fill="#CC6228"/>
<path id="Vector_14" d="M19.251 19.1755L19.7772 23.5827L22.6934 19.2852L19.251 19.1755Z" fill="#CC6228"/>
<path id="Vector_15" d="M21.8604 14.3302L15.6772 14.6152L16.2693 17.7507L17.1682 15.8651L19.3608 16.8517L21.8604 14.3302Z" fill="#CC6228"/>
<path id="Vector_16" d="M8.66092 16.8517L10.8535 15.8651L11.7525 17.7507L12.3226 14.6152L6.16138 14.3302L8.66092 16.8517Z" fill="#CC6228"/>
<path id="Vector_17" d="M6.16138 14.3302L8.74867 19.3294L8.66092 16.8517L6.16138 14.3302Z" fill="#E27625"/>
<path id="Vector_18" d="M19.3606 16.8517L19.2729 19.3294L21.8602 14.3302L19.3606 16.8517Z" fill="#E27625"/>
<path id="Vector_19" d="M12.3225 14.6152L11.7524 17.7507L12.476 21.4343L12.6514 16.5667L12.3225 14.6152Z" fill="#E27625"/>
<path id="Vector_20" d="M15.6772 14.6152L15.3921 16.5667L15.5237 21.4343L16.2692 17.7507L15.6772 14.6152Z" fill="#E27625"/>
<path id="Vector_21" d="M16.2692 17.7513L15.5237 21.4349L16.0499 21.8076L19.273 19.3299L19.3607 16.8523L16.2692 17.7513Z" fill="#F5841F"/>
<path id="Vector_22" d="M8.6604 16.8523L8.74815 19.3299L11.9713 21.8076L12.4755 21.4349L11.752 17.7513L8.6604 16.8523Z" fill="#F5841F"/>
<path id="Vector_23" d="M16.3126 25.2052L16.3565 24.1966L16.0714 23.9554H11.9493L11.6643 24.1966L11.6862 25.2052L8.22192 23.5826L9.44977 24.5694L11.9055 26.2357H16.1153L18.571 24.5694L19.7769 23.5826L16.3126 25.2052Z" fill="#C0AD9E"/>
<path id="Vector_24" d="M16.0497 21.8081L15.5236 21.4353H12.4758L11.9715 21.8081L11.6646 24.198L11.9496 23.9568H16.0717L16.3567 24.198L16.0497 21.8081Z" fill="#2F343B"/>
<path id="Vector_25" d="M27.0791 9.156L28 4.72691L26.6186 0.626709L16.0503 8.36665L20.1285 11.7652L25.8731 13.4097L27.123 11.9406L26.5748 11.546L27.4519 10.7566L26.7941 10.2523L27.6711 9.59452L27.0791 9.156Z" fill="#763E1A"/>
<path id="Vector_26" d="M0 4.72691L0.94282 9.156L0.350816 9.59452L1.22786 10.2523L0.570076 10.7566L1.44712 11.546L0.877038 11.9406L2.14875 13.4097L7.89337 11.7652L11.9716 8.36665L1.40327 0.626709L0 4.72691Z" fill="#763E1A"/>
<path id="Vector_27" d="M25.8727 13.4102L20.128 11.7657L21.8602 14.3311L19.2729 19.3303L22.6934 19.2864H27.8022L25.8727 13.4102Z" fill="#F5841F"/>
<path id="Vector_28" d="M7.89315 11.7657L2.14853 13.4102L0.240967 19.2864H5.3278L8.74829 19.3303L6.161 14.3311L7.89315 11.7657Z" fill="#F5841F"/>
<path id="Vector_29" d="M15.6771 14.6144L16.0498 8.36544L17.7162 3.91443H10.3052L11.9716 8.36544L12.3223 14.6144L12.4758 16.5878V21.4335H15.5236L15.5455 16.5878L15.6771 14.6144Z" fill="#F5841F"/>
</g>
</g>
</svg>
