<svg width="1440" height="1184" viewBox="0 0 1440 1184" fill="none" xmlns="http://www.w3.org/2000/svg">
<g clip-path="url(#clip0_224_167)">
<mask id="mask0_224_167" style="mask-type:luminance" maskUnits="userSpaceOnUse" x="0" y="0" width="1440" height="1184">
<path d="M1440 0H0V1184H1440V0Z" fill="white"/>
</mask>
<g mask="url(#mask0_224_167)">
<mask id="mask1_224_167" style="mask-type:alpha" maskUnits="userSpaceOnUse" x="42" y="0" width="1356" height="1356">
<g opacity="0.62">
<path d="M1398 0H42V1356H1398V0Z" fill="url(#paint0_radial_224_167)"/>
</g>
</mask>
<g mask="url(#mask1_224_167)">
<mask id="mask2_224_167" style="mask-type:luminance" maskUnits="userSpaceOnUse" x="60" y="0" width="1320" height="990">
<path d="M1380 0H60V990H1380V0Z" fill="white"/>
</mask>
<g mask="url(#mask2_224_167)">
<path d="M126 66V66.6847H126.685V66H126ZM125.315 0V66H126.685V0H125.315ZM126 65.3153H60V66.6847H126V65.3153Z" fill="#D0D5DD"/>
<path d="M192 66V66.6847H192.685V66H192ZM191.315 0V66H192.685V0H191.315ZM192 65.3153H126V66.6847H192V65.3153Z" fill="#D0D5DD"/>
<path d="M258 66V66.6847H258.685V66H258ZM257.315 0V66H258.685V0H257.315ZM258 65.3153H192V66.6847H258V65.3153Z" fill="#D0D5DD"/>
<path d="M324 66V66.6847H324.685V66H324ZM323.315 0V66H324.685V0H323.315ZM324 65.3153H258V66.6847H324V65.3153Z" fill="#D0D5DD"/>
<path d="M390 66V66.6847H390.685V66H390ZM389.315 0V66H390.685V0H389.315ZM390 65.3153H324V66.6847H390V65.3153Z" fill="#D0D5DD"/>
<path d="M456 66V66.6847H456.685V66H456ZM455.315 0V66H456.685V0H455.315ZM456 65.3153H390V66.6847H456V65.3153Z" fill="#D0D5DD"/>
<path d="M522 66V66.6847H522.685V66H522ZM521.315 0V66H522.685V0H521.315ZM522 65.3153H456V66.6847H522V65.3153Z" fill="#D0D5DD"/>
<path d="M588 66V66.6847H588.685V66H588ZM587.315 0V66H588.685V0H587.315ZM588 65.3153H522V66.6847H588V65.3153Z" fill="#D0D5DD"/>
<path d="M654 66V66.6847H654.685V66H654ZM653.315 0V66H654.685V0H653.315ZM654 65.3153H588V66.6847H654V65.3153Z" fill="#D0D5DD"/>
<path d="M720 66V66.6847H720.685V66H720ZM719.315 0V66H720.685V0H719.315ZM720 65.3153H654V66.6847H720V65.3153Z" fill="#D0D5DD"/>
<path d="M786 66V66.6847H786.685V66H786ZM785.315 0V66H786.685V0H785.315ZM786 65.3153H720V66.6847H786V65.3153Z" fill="#D0D5DD"/>
<path d="M852 66V66.6847H852.685V66H852ZM851.315 0V66H852.685V0H851.315ZM852 65.3153H786V66.6847H852V65.3153Z" fill="#D0D5DD"/>
<path d="M918 66V66.6847H918.685V66H918ZM917.315 0V66H918.685V0H917.315ZM918 65.3153H852V66.6847H918V65.3153Z" fill="#D0D5DD"/>
<path d="M984 66V66.6847H984.685V66H984ZM983.315 0V66H984.685V0H983.315ZM984 65.3153H918V66.6847H984V65.3153Z" fill="#D0D5DD"/>
<path d="M1050 66V66.6847H1050.68V66H1050ZM1049.32 0V66H1050.68V0H1049.32ZM1050 65.3153H984V66.6847H1050V65.3153Z" fill="#D0D5DD"/>
<path d="M1116 66V66.6847H1116.68V66H1116ZM1115.32 0V66H1116.68V0H1115.32ZM1116 65.3153H1050V66.6847H1116V65.3153Z" fill="#D0D5DD"/>
<path d="M1182 66V66.6847H1182.68V66H1182ZM1181.32 0V66H1182.68V0H1181.32ZM1182 65.3153H1116V66.6847H1182V65.3153Z" fill="#D0D5DD"/>
<path d="M1248 66V66.6847H1248.68V66H1248ZM1247.32 0V66H1248.68V0H1247.32ZM1248 65.3153H1182V66.6847H1248V65.3153Z" fill="#D0D5DD"/>
<path d="M1314 66V66.6847H1314.68V66H1314ZM1313.32 0V66H1314.68V0H1313.32ZM1314 65.3153H1248V66.6847H1314V65.3153Z" fill="#D0D5DD"/>
<path d="M1380 66V66.6847H1380.68V66H1380ZM1379.32 0V66H1380.68V0H1379.32ZM1380 65.3153H1314V66.6847H1380V65.3153Z" fill="#D0D5DD"/>
<path d="M126 132V132.685H126.685V132H126ZM125.315 66V132H126.685V66H125.315ZM126 131.315H60V132.685H126V131.315Z" fill="#D0D5DD"/>
<path d="M192 132V132.685H192.685V132H192ZM191.315 66V132H192.685V66H191.315ZM192 131.315H126V132.685H192V131.315Z" fill="#D0D5DD"/>
<path d="M258 132V132.685H258.685V132H258ZM257.315 66V132H258.685V66H257.315ZM258 131.315H192V132.685H258V131.315Z" fill="#D0D5DD"/>
<path d="M324 132V132.685H324.685V132H324ZM323.315 66V132H324.685V66H323.315ZM324 131.315H258V132.685H324V131.315Z" fill="#D0D5DD"/>
<path d="M390 132V132.685H390.685V132H390ZM389.315 66V132H390.685V66H389.315ZM390 131.315H324V132.685H390V131.315Z" fill="#D0D5DD"/>
<path d="M390 66H456V132H390V66Z" fill="#F6F5FF"/>
<mask id="mask3_224_167" style="mask-type:luminance" maskUnits="userSpaceOnUse" x="390" y="66" width="66" height="66">
<path d="M390 66H456V132H390V66Z" fill="#D0D5DD"/>
</mask>
<g mask="url(#mask3_224_167)">
<path d="M456 132V132.685H456.685V132H456ZM455.315 66V132H456.685V66H455.315ZM456 131.315H390V132.685H456V131.315Z" fill="#D0D5DD"/>
</g>
<path d="M522 132V132.685H522.685V132H522ZM521.315 66V132H522.685V66H521.315ZM522 131.315H456V132.685H522V131.315Z" fill="#D0D5DD"/>
<path d="M588 132V132.685H588.685V132H588ZM587.315 66V132H588.685V66H587.315ZM588 131.315H522V132.685H588V131.315Z" fill="#D0D5DD"/>
<path d="M654 132V132.685H654.685V132H654ZM653.315 66V132H654.685V66H653.315ZM654 131.315H588V132.685H654V131.315Z" fill="#D0D5DD"/>
<path d="M720 132V132.685H720.685V132H720ZM719.315 66V132H720.685V66H719.315ZM720 131.315H654V132.685H720V131.315Z" fill="#D0D5DD"/>
<path d="M786 132V132.685H786.685V132H786ZM785.315 66V132H786.685V66H785.315ZM786 131.315H720V132.685H786V131.315Z" fill="#D0D5DD"/>
<path d="M852 132V132.685H852.685V132H852ZM851.315 66V132H852.685V66H851.315ZM852 131.315H786V132.685H852V131.315Z" fill="#D0D5DD"/>
<path d="M918 132V132.685H918.685V132H918ZM917.315 66V132H918.685V66H917.315ZM918 131.315H852V132.685H918V131.315Z" fill="#D0D5DD"/>
<path d="M984 132V132.685H984.685V132H984ZM983.315 66V132H984.685V66H983.315ZM984 131.315H918V132.685H984V131.315Z" fill="#D0D5DD"/>
<path d="M984 66H1050V132H984V66Z" fill="#F6F5FF"/>
<mask id="mask4_224_167" style="mask-type:luminance" maskUnits="userSpaceOnUse" x="984" y="66" width="66" height="66">
<path d="M984 66H1050V132H984V66Z" fill="#D0D5DD"/>
</mask>
<g mask="url(#mask4_224_167)">
<path d="M1050 132V132.685H1050.68V132H1050ZM1049.32 66V132H1050.68V66H1049.32ZM1050 131.315H984V132.685H1050V131.315Z" fill="#D0D5DD"/>
</g>
<path d="M1116 132V132.685H1116.68V132H1116ZM1115.32 66V132H1116.68V66H1115.32ZM1116 131.315H1050V132.685H1116V131.315Z" fill="#D0D5DD"/>
<path d="M1182 132V132.685H1182.68V132H1182ZM1181.32 66V132H1182.68V66H1181.32ZM1182 131.315H1116V132.685H1182V131.315Z" fill="#D0D5DD"/>
<path d="M1248 132V132.685H1248.68V132H1248ZM1247.32 66V132H1248.68V66H1247.32ZM1248 131.315H1182V132.685H1248V131.315Z" fill="#D0D5DD"/>
<path d="M1314 132V132.685H1314.68V132H1314ZM1313.32 66V132H1314.68V66H1313.32ZM1314 131.315H1248V132.685H1314V131.315Z" fill="#D0D5DD"/>
<path d="M1380 132V132.685H1380.68V132H1380ZM1379.32 66V132H1380.68V66H1379.32ZM1380 131.315H1314V132.685H1380V131.315Z" fill="#D0D5DD"/>
<path d="M126 198V198.685H126.685V198H126ZM125.315 132V198H126.685V132H125.315ZM126 197.315H60V198.685H126V197.315Z" fill="#D0D5DD"/>
<path d="M192 198V198.685H192.685V198H192ZM191.315 132V198H192.685V132H191.315ZM192 197.315H126V198.685H192V197.315Z" fill="#D0D5DD"/>
<path d="M258 198V198.685H258.685V198H258ZM257.315 132V198H258.685V132H257.315ZM258 197.315H192V198.685H258V197.315Z" fill="#D0D5DD"/>
<path d="M324 198V198.685H324.685V198H324ZM323.315 132V198H324.685V132H323.315ZM324 197.315H258V198.685H324V197.315Z" fill="#D0D5DD"/>
<path d="M390 198V198.685H390.685V198H390ZM389.315 132V198H390.685V132H389.315ZM390 197.315H324V198.685H390V197.315Z" fill="#D0D5DD"/>
<path d="M456 198V198.685H456.685V198H456ZM455.315 132V198H456.685V132H455.315ZM456 197.315H390V198.685H456V197.315Z" fill="#D0D5DD"/>
<path d="M522 198V198.685H522.685V198H522ZM521.315 132V198H522.685V132H521.315ZM522 197.315H456V198.685H522V197.315Z" fill="#D0D5DD"/>
<path d="M522 132H588V198H522V132Z" fill="#F6F5FF"/>
<mask id="mask5_224_167" style="mask-type:luminance" maskUnits="userSpaceOnUse" x="522" y="132" width="66" height="66">
<path d="M522 132H588V198H522V132Z" fill="#D0D5DD"/>
</mask>
<g mask="url(#mask5_224_167)">
<path d="M588 198V198.685H588.685V198H588ZM587.315 132V198H588.685V132H587.315ZM588 197.315H522V198.685H588V197.315Z" fill="#D0D5DD"/>
</g>
<path d="M654 198V198.685H654.685V198H654ZM653.315 132V198H654.685V132H653.315ZM654 197.315H588V198.685H654V197.315Z" fill="#D0D5DD"/>
<path d="M720 198V198.685H720.685V198H720ZM719.315 132V198H720.685V132H719.315ZM720 197.315H654V198.685H720V197.315Z" fill="#D0D5DD"/>
<path d="M786 198V198.685H786.685V198H786ZM785.315 132V198H786.685V132H785.315ZM786 197.315H720V198.685H786V197.315Z" fill="#D0D5DD"/>
<path d="M786 132H852V198H786V132Z" fill="#F6F5FF"/>
<mask id="mask6_224_167" style="mask-type:luminance" maskUnits="userSpaceOnUse" x="786" y="132" width="66" height="66">
<path d="M786 132H852V198H786V132Z" fill="#D0D5DD"/>
</mask>
<g mask="url(#mask6_224_167)">
<path d="M852 198V198.685H852.685V198H852ZM851.315 132V198H852.685V132H851.315ZM852 197.315H786V198.685H852V197.315Z" fill="#D0D5DD"/>
</g>
<path d="M918 198V198.685H918.685V198H918ZM917.315 132V198H918.685V132H917.315ZM918 197.315H852V198.685H918V197.315Z" fill="#D0D5DD"/>
<path d="M984 198V198.685H984.685V198H984ZM983.315 132V198H984.685V132H983.315ZM984 197.315H918V198.685H984V197.315Z" fill="#D0D5DD"/>
<path d="M1050 198V198.685H1050.68V198H1050ZM1049.32 132V198H1050.68V132H1049.32ZM1050 197.315H984V198.685H1050V197.315Z" fill="#D0D5DD"/>
<path d="M1116 198V198.685H1116.68V198H1116ZM1115.32 132V198H1116.68V132H1115.32ZM1116 197.315H1050V198.685H1116V197.315Z" fill="#D0D5DD"/>
<path d="M1182 198V198.685H1182.68V198H1182ZM1181.32 132V198H1182.68V132H1181.32ZM1182 197.315H1116V198.685H1182V197.315Z" fill="#D0D5DD"/>
<path d="M1248 198V198.685H1248.68V198H1248ZM1247.32 132V198H1248.68V132H1247.32ZM1248 197.315H1182V198.685H1248V197.315Z" fill="#D0D5DD"/>
<path d="M1314 198V198.685H1314.68V198H1314ZM1313.32 132V198H1314.68V132H1313.32ZM1314 197.315H1248V198.685H1314V197.315Z" fill="#D0D5DD"/>
<path d="M1380 198V198.685H1380.68V198H1380ZM1379.32 132V198H1380.68V132H1379.32ZM1380 197.315H1314V198.685H1380V197.315Z" fill="#D0D5DD"/>
<path d="M126 264V264.685H126.685V264H126ZM125.315 198V264H126.685V198H125.315ZM126 263.315H60V264.685H126V263.315Z" fill="#D0D5DD"/>
<path d="M192 264V264.685H192.685V264H192ZM191.315 198V264H192.685V198H191.315ZM192 263.315H126V264.685H192V263.315Z" fill="#D0D5DD"/>
<path d="M192 198H258V264H192V198Z" fill="#F6F5FF"/>
<mask id="mask7_224_167" style="mask-type:luminance" maskUnits="userSpaceOnUse" x="192" y="198" width="66" height="66">
<path d="M192 198H258V264H192V198Z" fill="#D0D5DD"/>
</mask>
<g mask="url(#mask7_224_167)">
<path d="M258 264V264.685H258.685V264H258ZM257.315 198V264H258.685V198H257.315ZM258 263.315H192V264.685H258V263.315Z" fill="#D0D5DD"/>
</g>
<path d="M324 264V264.685H324.685V264H324ZM323.315 198V264H324.685V198H323.315ZM324 263.315H258V264.685H324V263.315Z" fill="#D0D5DD"/>
<path d="M390 264V264.685H390.685V264H390ZM389.315 198V264H390.685V198H389.315ZM390 263.315H324V264.685H390V263.315Z" fill="#D0D5DD"/>
<path d="M456 264V264.685H456.685V264H456ZM455.315 198V264H456.685V198H455.315ZM456 263.315H390V264.685H456V263.315Z" fill="#D0D5DD"/>
<path d="M522 264V264.685H522.685V264H522ZM521.315 198V264H522.685V198H521.315ZM522 263.315H456V264.685H522V263.315Z" fill="#D0D5DD"/>
<path d="M588 264V264.685H588.685V264H588ZM587.315 198V264H588.685V198H587.315ZM588 263.315H522V264.685H588V263.315Z" fill="#D0D5DD"/>
<path d="M654 264V264.685H654.685V264H654ZM653.315 198V264H654.685V198H653.315ZM654 263.315H588V264.685H654V263.315Z" fill="#D0D5DD"/>
<path d="M720 264V264.685H720.685V264H720ZM719.315 198V264H720.685V198H719.315ZM720 263.315H654V264.685H720V263.315Z" fill="#D0D5DD"/>
<path d="M786 264V264.685H786.685V264H786ZM785.315 198V264H786.685V198H785.315ZM786 263.315H720V264.685H786V263.315Z" fill="#D0D5DD"/>
<path d="M852 264V264.685H852.685V264H852ZM851.315 198V264H852.685V198H851.315ZM852 263.315H786V264.685H852V263.315Z" fill="#D0D5DD"/>
<path d="M918 264V264.685H918.685V264H918ZM917.315 198V264H918.685V198H917.315ZM918 263.315H852V264.685H918V263.315Z" fill="#D0D5DD"/>
<path d="M984 264V264.685H984.685V264H984ZM983.315 198V264H984.685V198H983.315ZM984 263.315H918V264.685H984V263.315Z" fill="#D0D5DD"/>
<path d="M984 198H1050V264H984V198Z" fill="#F6F5FF"/>
<mask id="mask8_224_167" style="mask-type:luminance" maskUnits="userSpaceOnUse" x="984" y="198" width="66" height="66">
<path d="M984 198H1050V264H984V198Z" fill="#D0D5DD"/>
</mask>
<g mask="url(#mask8_224_167)">
<path d="M1050 264V264.685H1050.68V264H1050ZM1049.32 198V264H1050.68V198H1049.32ZM1050 263.315H984V264.685H1050V263.315Z" fill="#D0D5DD"/>
</g>
<path d="M1116 264V264.685H1116.68V264H1116ZM1115.32 198V264H1116.68V198H1115.32ZM1116 263.315H1050V264.685H1116V263.315Z" fill="#D0D5DD"/>
<path d="M1182 264V264.685H1182.68V264H1182ZM1181.32 198V264H1182.68V198H1181.32ZM1182 263.315H1116V264.685H1182V263.315Z" fill="#D0D5DD"/>
<path d="M1248 264V264.685H1248.68V264H1248ZM1247.32 198V264H1248.68V198H1247.32ZM1248 263.315H1182V264.685H1248V263.315Z" fill="#D0D5DD"/>
<path d="M1314 264V264.685H1314.68V264H1314ZM1313.32 198V264H1314.68V198H1313.32ZM1314 263.315H1248V264.685H1314V263.315Z" fill="#D0D5DD"/>
<path d="M1380 264V264.685H1380.68V264H1380ZM1379.32 198V264H1380.68V198H1379.32ZM1380 263.315H1314V264.685H1380V263.315Z" fill="#D0D5DD"/>
<path d="M126 330V330.685H126.685V330H126ZM125.315 264V330H126.685V264H125.315ZM126 329.315H60V330.685H126V329.315Z" fill="#D0D5DD"/>
<path d="M192 330V330.685H192.685V330H192ZM191.315 264V330H192.685V264H191.315ZM192 329.315H126V330.685H192V329.315Z" fill="#D0D5DD"/>
<path d="M258 330V330.685H258.685V330H258ZM257.315 264V330H258.685V264H257.315ZM258 329.315H192V330.685H258V329.315Z" fill="#D0D5DD"/>
<path d="M324 330V330.685H324.685V330H324ZM323.315 264V330H324.685V264H323.315ZM324 329.315H258V330.685H324V329.315Z" fill="#D0D5DD"/>
<path d="M390 330V330.685H390.685V330H390ZM389.315 264V330H390.685V264H389.315ZM390 329.315H324V330.685H390V329.315Z" fill="#D0D5DD"/>
<path d="M456 330V330.685H456.685V330H456ZM455.315 264V330H456.685V264H455.315ZM456 329.315H390V330.685H456V329.315Z" fill="#D0D5DD"/>
<path d="M522 330V330.685H522.685V330H522ZM521.315 264V330H522.685V264H521.315ZM522 329.315H456V330.685H522V329.315Z" fill="#D0D5DD"/>
<path d="M588 330V330.685H588.685V330H588ZM587.315 264V330H588.685V264H587.315ZM588 329.315H522V330.685H588V329.315Z" fill="#D0D5DD"/>
<path d="M588 264H654V330H588V264Z" fill="#F6F5FF"/>
<mask id="mask9_224_167" style="mask-type:luminance" maskUnits="userSpaceOnUse" x="588" y="264" width="66" height="66">
<path d="M588 264H654V330H588V264Z" fill="#D0D5DD"/>
</mask>
<g mask="url(#mask9_224_167)">
<path d="M654 330V330.685H654.685V330H654ZM653.315 264V330H654.685V264H653.315ZM654 329.315H588V330.685H654V329.315Z" fill="#D0D5DD"/>
</g>
<path d="M720 330V330.685H720.685V330H720ZM719.315 264V330H720.685V264H719.315ZM720 329.315H654V330.685H720V329.315Z" fill="#D0D5DD"/>
<path d="M786 330V330.685H786.685V330H786ZM785.315 264V330H786.685V264H785.315ZM786 329.315H720V330.685H786V329.315Z" fill="#D0D5DD"/>
<path d="M852 330V330.685H852.685V330H852ZM851.315 264V330H852.685V264H851.315ZM852 329.315H786V330.685H852V329.315Z" fill="#D0D5DD"/>
<path d="M918 330V330.685H918.685V330H918ZM917.315 264V330H918.685V264H917.315ZM918 329.315H852V330.685H918V329.315Z" fill="#D0D5DD"/>
<path d="M984 330V330.685H984.685V330H984ZM983.315 264V330H984.685V264H983.315ZM984 329.315H918V330.685H984V329.315Z" fill="#D0D5DD"/>
<path d="M1050 330V330.685H1050.68V330H1050ZM1049.32 264V330H1050.68V264H1049.32ZM1050 329.315H984V330.685H1050V329.315Z" fill="#D0D5DD"/>
<path d="M1116 330V330.685H1116.68V330H1116ZM1115.32 264V330H1116.68V264H1115.32ZM1116 329.315H1050V330.685H1116V329.315Z" fill="#D0D5DD"/>
<path d="M1182 330V330.685H1182.68V330H1182ZM1181.32 264V330H1182.68V264H1181.32ZM1182 329.315H1116V330.685H1182V329.315Z" fill="#D0D5DD"/>
<path d="M1248 330V330.685H1248.68V330H1248ZM1247.32 264V330H1248.68V264H1247.32ZM1248 329.315H1182V330.685H1248V329.315Z" fill="#D0D5DD"/>
<path d="M1248 264H1314V330H1248V264Z" fill="#F6F5FF"/>
<mask id="mask10_224_167" style="mask-type:luminance" maskUnits="userSpaceOnUse" x="1248" y="264" width="66" height="66">
<path d="M1248 264H1314V330H1248V264Z" fill="#D0D5DD"/>
</mask>
<g mask="url(#mask10_224_167)">
<path d="M1314 330V330.685H1314.68V330H1314ZM1313.32 264V330H1314.68V264H1313.32ZM1314 329.315H1248V330.685H1314V329.315Z" fill="#D0D5DD"/>
</g>
<path d="M1380 330V330.685H1380.68V330H1380ZM1379.32 264V330H1380.68V264H1379.32ZM1380 329.315H1314V330.685H1380V329.315Z" fill="#D0D5DD"/>
<path d="M126 396V396.685H126.685V396H126ZM125.315 330V396H126.685V330H125.315ZM126 395.315H60V396.685H126V395.315Z" fill="#D0D5DD"/>
<path d="M192 396V396.685H192.685V396H192ZM191.315 330V396H192.685V330H191.315ZM192 395.315H126V396.685H192V395.315Z" fill="#D0D5DD"/>
<path d="M258 396V396.685H258.685V396H258ZM257.315 330V396H258.685V330H257.315ZM258 395.315H192V396.685H258V395.315Z" fill="#D0D5DD"/>
<path d="M324 396V396.685H324.685V396H324ZM323.315 330V396H324.685V330H323.315ZM324 395.315H258V396.685H324V395.315Z" fill="#D0D5DD"/>
<path d="M390 396V396.685H390.685V396H390ZM389.315 330V396H390.685V330H389.315ZM390 395.315H324V396.685H390V395.315Z" fill="#D0D5DD"/>
<path d="M390 330H456V396H390V330Z" fill="#F6F5FF"/>
<mask id="mask11_224_167" style="mask-type:luminance" maskUnits="userSpaceOnUse" x="390" y="330" width="66" height="66">
<path d="M390 330H456V396H390V330Z" fill="#D0D5DD"/>
</mask>
<g mask="url(#mask11_224_167)">
<path d="M456 396V396.685H456.685V396H456ZM455.315 330V396H456.685V330H455.315ZM456 395.315H390V396.685H456V395.315Z" fill="#D0D5DD"/>
</g>
<path d="M522 396V396.685H522.685V396H522ZM521.315 330V396H522.685V330H521.315ZM522 395.315H456V396.685H522V395.315Z" fill="#D0D5DD"/>
<path d="M588 396V396.685H588.685V396H588ZM587.315 330V396H588.685V330H587.315ZM588 395.315H522V396.685H588V395.315Z" fill="#D0D5DD"/>
<path d="M654 396V396.685H654.685V396H654ZM653.315 330V396H654.685V330H653.315ZM654 395.315H588V396.685H654V395.315Z" fill="#D0D5DD"/>
<path d="M720 396V396.685H720.685V396H720ZM719.315 330V396H720.685V330H719.315ZM720 395.315H654V396.685H720V395.315Z" fill="#D0D5DD"/>
<path d="M786 396V396.685H786.685V396H786ZM785.315 330V396H786.685V330H785.315ZM786 395.315H720V396.685H786V395.315Z" fill="#D0D5DD"/>
<path d="M786 330H852V396H786V330Z" fill="#F6F5FF"/>
<mask id="mask12_224_167" style="mask-type:luminance" maskUnits="userSpaceOnUse" x="786" y="330" width="66" height="66">
<path d="M786 330H852V396H786V330Z" fill="#D0D5DD"/>
</mask>
<g mask="url(#mask12_224_167)">
<path d="M852 396V396.685H852.685V396H852ZM851.315 330V396H852.685V330H851.315ZM852 395.315H786V396.685H852V395.315Z" fill="#D0D5DD"/>
</g>
<path d="M918 396V396.685H918.685V396H918ZM917.315 330V396H918.685V330H917.315ZM918 395.315H852V396.685H918V395.315Z" fill="#D0D5DD"/>
<path d="M984 396V396.685H984.685V396H984ZM983.315 330V396H984.685V330H983.315ZM984 395.315H918V396.685H984V395.315Z" fill="#D0D5DD"/>
<path d="M1050 396V396.685H1050.68V396H1050ZM1049.32 330V396H1050.68V330H1049.32ZM1050 395.315H984V396.685H1050V395.315Z" fill="#D0D5DD"/>
<path d="M1116 396V396.685H1116.68V396H1116ZM1115.32 330V396H1116.68V330H1115.32ZM1116 395.315H1050V396.685H1116V395.315Z" fill="#D0D5DD"/>
<path d="M1182 396V396.685H1182.68V396H1182ZM1181.32 330V396H1182.68V330H1181.32ZM1182 395.315H1116V396.685H1182V395.315Z" fill="#D0D5DD"/>
<path d="M1248 396V396.685H1248.68V396H1248ZM1247.32 330V396H1248.68V330H1247.32ZM1248 395.315H1182V396.685H1248V395.315Z" fill="#D0D5DD"/>
<path d="M1314 396V396.685H1314.68V396H1314ZM1313.32 330V396H1314.68V330H1313.32ZM1314 395.315H1248V396.685H1314V395.315Z" fill="#D0D5DD"/>
<path d="M1380 396V396.685H1380.68V396H1380ZM1379.32 330V396H1380.68V330H1379.32ZM1380 395.315H1314V396.685H1380V395.315Z" fill="#D0D5DD"/>
<path d="M126 462V462.685H126.685V462H126ZM125.315 396V462H126.685V396H125.315ZM126 461.315H60V462.685H126V461.315Z" fill="#D0D5DD"/>
<path d="M192 462V462.685H192.685V462H192ZM191.315 396V462H192.685V396H191.315ZM192 461.315H126V462.685H192V461.315Z" fill="#D0D5DD"/>
<path d="M258 462V462.685H258.685V462H258ZM257.315 396V462H258.685V396H257.315ZM258 461.315H192V462.685H258V461.315Z" fill="#D0D5DD"/>
<path d="M258 396H324V462H258V396Z" fill="#F6F5FF"/>
<mask id="mask13_224_167" style="mask-type:luminance" maskUnits="userSpaceOnUse" x="258" y="396" width="66" height="66">
<path d="M258 396H324V462H258V396Z" fill="#D0D5DD"/>
</mask>
<g mask="url(#mask13_224_167)">
<path d="M324 462V462.685H324.685V462H324ZM323.315 396V462H324.685V396H323.315ZM324 461.315H258V462.685H324V461.315Z" fill="#D0D5DD"/>
</g>
<path d="M390 462V462.685H390.685V462H390ZM389.315 396V462H390.685V396H389.315ZM390 461.315H324V462.685H390V461.315Z" fill="#D0D5DD"/>
<path d="M456 462V462.685H456.685V462H456ZM455.315 396V462H456.685V396H455.315ZM456 461.315H390V462.685H456V461.315Z" fill="#D0D5DD"/>
<path d="M522 462V462.685H522.685V462H522ZM521.315 396V462H522.685V396H521.315ZM522 461.315H456V462.685H522V461.315Z" fill="#D0D5DD"/>
<path d="M588 462V462.685H588.685V462H588ZM587.315 396V462H588.685V396H587.315ZM588 461.315H522V462.685H588V461.315Z" fill="#D0D5DD"/>
<path d="M654 462V462.685H654.685V462H654ZM653.315 396V462H654.685V396H653.315ZM654 461.315H588V462.685H654V461.315Z" fill="#D0D5DD"/>
<path d="M720 462V462.685H720.685V462H720ZM719.315 396V462H720.685V396H719.315ZM720 461.315H654V462.685H720V461.315Z" fill="#D0D5DD"/>
<path d="M786 462V462.685H786.685V462H786ZM785.315 396V462H786.685V396H785.315ZM786 461.315H720V462.685H786V461.315Z" fill="#D0D5DD"/>
<path d="M852 462V462.685H852.685V462H852ZM851.315 396V462H852.685V396H851.315ZM852 461.315H786V462.685H852V461.315Z" fill="#D0D5DD"/>
<path d="M918 462V462.685H918.685V462H918ZM917.315 396V462H918.685V396H917.315ZM918 461.315H852V462.685H918V461.315Z" fill="#D0D5DD"/>
<path d="M984 462V462.685H984.685V462H984ZM983.315 396V462H984.685V396H983.315ZM984 461.315H918V462.685H984V461.315Z" fill="#D0D5DD"/>
<path d="M1050 462V462.685H1050.68V462H1050ZM1049.32 396V462H1050.68V396H1049.32ZM1050 461.315H984V462.685H1050V461.315Z" fill="#D0D5DD"/>
<path d="M1116 462V462.685H1116.68V462H1116ZM1115.32 396V462H1116.68V396H1115.32ZM1116 461.315H1050V462.685H1116V461.315Z" fill="#D0D5DD"/>
<path d="M1116 396H1182V462H1116V396Z" fill="#F6F5FF"/>
<mask id="mask14_224_167" style="mask-type:luminance" maskUnits="userSpaceOnUse" x="1116" y="396" width="66" height="66">
<path d="M1116 396H1182V462H1116V396Z" fill="#D0D5DD"/>
</mask>
<g mask="url(#mask14_224_167)">
<path d="M1182 462V462.685H1182.68V462H1182ZM1181.32 396V462H1182.68V396H1181.32ZM1182 461.315H1116V462.685H1182V461.315Z" fill="#D0D5DD"/>
</g>
<path d="M1248 462V462.685H1248.68V462H1248ZM1247.32 396V462H1248.68V396H1247.32ZM1248 461.315H1182V462.685H1248V461.315Z" fill="#D0D5DD"/>
<path d="M1314 462V462.685H1314.68V462H1314ZM1313.32 396V462H1314.68V396H1313.32ZM1314 461.315H1248V462.685H1314V461.315Z" fill="#D0D5DD"/>
<path d="M1380 462V462.685H1380.68V462H1380ZM1379.32 396V462H1380.68V396H1379.32ZM1380 461.315H1314V462.685H1380V461.315Z" fill="#D0D5DD"/>
<path d="M126 528V528.685H126.685V528H126ZM125.315 462V528H126.685V462H125.315ZM126 527.315H60V528.685H126V527.315Z" fill="#D0D5DD"/>
<path d="M192 528V528.685H192.685V528H192ZM191.315 462V528H192.685V462H191.315ZM192 527.315H126V528.685H192V527.315Z" fill="#D0D5DD"/>
<path d="M258 528V528.685H258.685V528H258ZM257.315 462V528H258.685V462H257.315ZM258 527.315H192V528.685H258V527.315Z" fill="#D0D5DD"/>
<path d="M324 528V528.685H324.685V528H324ZM323.315 462V528H324.685V462H323.315ZM324 527.315H258V528.685H324V527.315Z" fill="#D0D5DD"/>
<path d="M390 528V528.685H390.685V528H390ZM389.315 462V528H390.685V462H389.315ZM390 527.315H324V528.685H390V527.315Z" fill="#D0D5DD"/>
<path d="M456 528V528.685H456.685V528H456ZM455.315 462V528H456.685V462H455.315ZM456 527.315H390V528.685H456V527.315Z" fill="#D0D5DD"/>
<path d="M522 528V528.685H522.685V528H522ZM521.315 462V528H522.685V462H521.315ZM522 527.315H456V528.685H522V527.315Z" fill="#D0D5DD"/>
<path d="M588 528V528.685H588.685V528H588ZM587.315 462V528H588.685V462H587.315ZM588 527.315H522V528.685H588V527.315Z" fill="#D0D5DD"/>
<path d="M588 462H654V528H588V462Z" fill="#F6F5FF"/>
<mask id="mask15_224_167" style="mask-type:luminance" maskUnits="userSpaceOnUse" x="588" y="462" width="66" height="66">
<path d="M588 462H654V528H588V462Z" fill="#D0D5DD"/>
</mask>
<g mask="url(#mask15_224_167)">
<path d="M654 528V528.685H654.685V528H654ZM653.315 462V528H654.685V462H653.315ZM654 527.315H588V528.685H654V527.315Z" fill="#D0D5DD"/>
</g>
<path d="M720 528V528.685H720.685V528H720ZM719.315 462V528H720.685V462H719.315ZM720 527.315H654V528.685H720V527.315Z" fill="#D0D5DD"/>
<path d="M786 528V528.685H786.685V528H786ZM785.315 462V528H786.685V462H785.315ZM786 527.315H720V528.685H786V527.315Z" fill="#D0D5DD"/>
<path d="M852 528V528.685H852.685V528H852ZM851.315 462V528H852.685V462H851.315ZM852 527.315H786V528.685H852V527.315Z" fill="#D0D5DD"/>
<path d="M918 528V528.685H918.685V528H918ZM917.315 462V528H918.685V462H917.315ZM918 527.315H852V528.685H918V527.315Z" fill="#D0D5DD"/>
<path d="M984 528V528.685H984.685V528H984ZM983.315 462V528H984.685V462H983.315ZM984 527.315H918V528.685H984V527.315Z" fill="#D0D5DD"/>
<path d="M984 462H1050V528H984V462Z" fill="#F6F5FF"/>
<mask id="mask16_224_167" style="mask-type:luminance" maskUnits="userSpaceOnUse" x="984" y="462" width="66" height="66">
<path d="M984 462H1050V528H984V462Z" fill="#D0D5DD"/>
</mask>
<g mask="url(#mask16_224_167)">
<path d="M1050 528V528.685H1050.68V528H1050ZM1049.32 462V528H1050.68V462H1049.32ZM1050 527.315H984V528.685H1050V527.315Z" fill="#D0D5DD"/>
</g>
<path d="M1116 528V528.685H1116.68V528H1116ZM1115.32 462V528H1116.68V462H1115.32ZM1116 527.315H1050V528.685H1116V527.315Z" fill="#D0D5DD"/>
<path d="M1182 528V528.685H1182.68V528H1182ZM1181.32 462V528H1182.68V462H1181.32ZM1182 527.315H1116V528.685H1182V527.315Z" fill="#D0D5DD"/>
<path d="M1248 528V528.685H1248.68V528H1248ZM1247.32 462V528H1248.68V462H1247.32ZM1248 527.315H1182V528.685H1248V527.315Z" fill="#D0D5DD"/>
<path d="M1314 528V528.685H1314.68V528H1314ZM1313.32 462V528H1314.68V462H1313.32ZM1314 527.315H1248V528.685H1314V527.315Z" fill="#D0D5DD"/>
<path d="M1380 528V528.685H1380.68V528H1380ZM1379.32 462V528H1380.68V462H1379.32ZM1380 527.315H1314V528.685H1380V527.315Z" fill="#D0D5DD"/>
<path d="M126 594V594.685H126.685V594H126ZM125.315 528V594H126.685V528H125.315ZM126 593.315H60V594.685H126V593.315Z" fill="#D0D5DD"/>
<path d="M192 594V594.685H192.685V594H192ZM191.315 528V594H192.685V528H191.315ZM192 593.315H126V594.685H192V593.315Z" fill="#D0D5DD"/>
<path d="M258 594V594.685H258.685V594H258ZM257.315 528V594H258.685V528H257.315ZM258 593.315H192V594.685H258V593.315Z" fill="#D0D5DD"/>
<path d="M324 594V594.685H324.685V594H324ZM323.315 528V594H324.685V528H323.315ZM324 593.315H258V594.685H324V593.315Z" fill="#D0D5DD"/>
<path d="M390 594V594.685H390.685V594H390ZM389.315 528V594H390.685V528H389.315ZM390 593.315H324V594.685H390V593.315Z" fill="#D0D5DD"/>
<path d="M390 528H456V594H390V528Z" fill="#F6F5FF"/>
<mask id="mask17_224_167" style="mask-type:luminance" maskUnits="userSpaceOnUse" x="390" y="528" width="66" height="66">
<path d="M390 528H456V594H390V528Z" fill="#D0D5DD"/>
</mask>
<g mask="url(#mask17_224_167)">
<path d="M456 594V594.685H456.685V594H456ZM455.315 528V594H456.685V528H455.315ZM456 593.315H390V594.685H456V593.315Z" fill="#D0D5DD"/>
</g>
<path d="M522 594V594.685H522.685V594H522ZM521.315 528V594H522.685V528H521.315ZM522 593.315H456V594.685H522V593.315Z" fill="#D0D5DD"/>
<path d="M588 594V594.685H588.685V594H588ZM587.315 528V594H588.685V528H587.315ZM588 593.315H522V594.685H588V593.315Z" fill="#D0D5DD"/>
<path d="M654 594V594.685H654.685V594H654ZM653.315 528V594H654.685V528H653.315ZM654 593.315H588V594.685H654V593.315Z" fill="#D0D5DD"/>
<path d="M720 594V594.685H720.685V594H720ZM719.315 528V594H720.685V528H719.315ZM720 593.315H654V594.685H720V593.315Z" fill="#D0D5DD"/>
<path d="M786 594V594.685H786.685V594H786ZM785.315 528V594H786.685V528H785.315ZM786 593.315H720V594.685H786V593.315Z" fill="#D0D5DD"/>
<path d="M786 528H852V594H786V528Z" fill="#F6F5FF"/>
<mask id="mask18_224_167" style="mask-type:luminance" maskUnits="userSpaceOnUse" x="786" y="528" width="66" height="66">
<path d="M786 528H852V594H786V528Z" fill="#D0D5DD"/>
</mask>
<g mask="url(#mask18_224_167)">
<path d="M852 594V594.685H852.685V594H852ZM851.315 528V594H852.685V528H851.315ZM852 593.315H786V594.685H852V593.315Z" fill="#D0D5DD"/>
</g>
<path d="M918 594V594.685H918.685V594H918ZM917.315 528V594H918.685V528H917.315ZM918 593.315H852V594.685H918V593.315Z" fill="#D0D5DD"/>
<path d="M984 594V594.685H984.685V594H984ZM983.315 528V594H984.685V528H983.315ZM984 593.315H918V594.685H984V593.315Z" fill="#D0D5DD"/>
<path d="M1050 594V594.685H1050.68V594H1050ZM1049.32 528V594H1050.68V528H1049.32ZM1050 593.315H984V594.685H1050V593.315Z" fill="#D0D5DD"/>
<path d="M1116 594V594.685H1116.68V594H1116ZM1115.32 528V594H1116.68V528H1115.32ZM1116 593.315H1050V594.685H1116V593.315Z" fill="#D0D5DD"/>
<path d="M1182 594V594.685H1182.68V594H1182ZM1181.32 528V594H1182.68V528H1181.32ZM1182 593.315H1116V594.685H1182V593.315Z" fill="#D0D5DD"/>
<path d="M1248 594V594.685H1248.68V594H1248ZM1247.32 528V594H1248.68V528H1247.32ZM1248 593.315H1182V594.685H1248V593.315Z" fill="#D0D5DD"/>
<path d="M1314 594V594.685H1314.68V594H1314ZM1313.32 528V594H1314.68V528H1313.32ZM1314 593.315H1248V594.685H1314V593.315Z" fill="#D0D5DD"/>
<path d="M1380 594V594.685H1380.68V594H1380ZM1379.32 528V594H1380.68V528H1379.32ZM1380 593.315H1314V594.685H1380V593.315Z" fill="#D0D5DD"/>
<path d="M126 660V660.685H126.685V660H126ZM125.315 594V660H126.685V594H125.315ZM126 659.315H60V660.685H126V659.315Z" fill="#D0D5DD"/>
<path d="M126 594H192V660H126V594Z" fill="#F6F5FF"/>
<mask id="mask19_224_167" style="mask-type:luminance" maskUnits="userSpaceOnUse" x="126" y="594" width="66" height="66">
<path d="M126 594H192V660H126V594Z" fill="#D0D5DD"/>
</mask>
<g mask="url(#mask19_224_167)">
<path d="M192 660V660.685H192.685V660H192ZM191.315 594V660H192.685V594H191.315ZM192 659.315H126V660.685H192V659.315Z" fill="#D0D5DD"/>
</g>
<path d="M258 660V660.685H258.685V660H258ZM257.315 594V660H258.685V594H257.315ZM258 659.315H192V660.685H258V659.315Z" fill="#D0D5DD"/>
<path d="M324 660V660.685H324.685V660H324ZM323.315 594V660H324.685V594H323.315ZM324 659.315H258V660.685H324V659.315Z" fill="#D0D5DD"/>
<path d="M390 660V660.685H390.685V660H390ZM389.315 594V660H390.685V594H389.315ZM390 659.315H324V660.685H390V659.315Z" fill="#D0D5DD"/>
<path d="M456 660V660.685H456.685V660H456ZM455.315 594V660H456.685V594H455.315ZM456 659.315H390V660.685H456V659.315Z" fill="#D0D5DD"/>
<path d="M522 660V660.685H522.685V660H522ZM521.315 594V660H522.685V594H521.315ZM522 659.315H456V660.685H522V659.315Z" fill="#D0D5DD"/>
<path d="M588 660V660.685H588.685V660H588ZM587.315 594V660H588.685V594H587.315ZM588 659.315H522V660.685H588V659.315Z" fill="#D0D5DD"/>
<path d="M654 660V660.685H654.685V660H654ZM653.315 594V660H654.685V594H653.315ZM654 659.315H588V660.685H654V659.315Z" fill="#D0D5DD"/>
<path d="M720 660V660.685H720.685V660H720ZM719.315 594V660H720.685V594H719.315ZM720 659.315H654V660.685H720V659.315Z" fill="#D0D5DD"/>
<path d="M786 660V660.685H786.685V660H786ZM785.315 594V660H786.685V594H785.315ZM786 659.315H720V660.685H786V659.315Z" fill="#D0D5DD"/>
<path d="M852 660V660.685H852.685V660H852ZM851.315 594V660H852.685V594H851.315ZM852 659.315H786V660.685H852V659.315Z" fill="#D0D5DD"/>
<path d="M918 660V660.685H918.685V660H918ZM917.315 594V660H918.685V594H917.315ZM918 659.315H852V660.685H918V659.315Z" fill="#D0D5DD"/>
<path d="M984 660V660.685H984.685V660H984ZM983.315 594V660H984.685V594H983.315ZM984 659.315H918V660.685H984V659.315Z" fill="#D0D5DD"/>
<path d="M1050 660V660.685H1050.68V660H1050ZM1049.32 594V660H1050.68V594H1049.32ZM1050 659.315H984V660.685H1050V659.315Z" fill="#D0D5DD"/>
<path d="M1116 660V660.685H1116.68V660H1116ZM1115.32 594V660H1116.68V594H1115.32ZM1116 659.315H1050V660.685H1116V659.315Z" fill="#D0D5DD"/>
<path d="M1182 660V660.685H1182.68V660H1182ZM1181.32 594V660H1182.68V594H1181.32ZM1182 659.315H1116V660.685H1182V659.315Z" fill="#D0D5DD"/>
<path d="M1182 594H1248V660H1182V594Z" fill="#F6F5FF"/>
<mask id="mask20_224_167" style="mask-type:luminance" maskUnits="userSpaceOnUse" x="1182" y="594" width="66" height="66">
<path d="M1182 594H1248V660H1182V594Z" fill="#D0D5DD"/>
</mask>
<g mask="url(#mask20_224_167)">
<path d="M1248 660V660.685H1248.68V660H1248ZM1247.32 594V660H1248.68V594H1247.32ZM1248 659.315H1182V660.685H1248V659.315Z" fill="#D0D5DD"/>
</g>
<path d="M1314 660V660.685H1314.68V660H1314ZM1313.32 594V660H1314.68V594H1313.32ZM1314 659.315H1248V660.685H1314V659.315Z" fill="#D0D5DD"/>
<path d="M1380 660V660.685H1380.68V660H1380ZM1379.32 594V660H1380.68V594H1379.32ZM1380 659.315H1314V660.685H1380V659.315Z" fill="#D0D5DD"/>
<path d="M126 726V726.685H126.685V726H126ZM125.315 660V726H126.685V660H125.315ZM126 725.315H60V726.685H126V725.315Z" fill="#D0D5DD"/>
<path d="M192 726V726.685H192.685V726H192ZM191.315 660V726H192.685V660H191.315ZM192 725.315H126V726.685H192V725.315Z" fill="#D0D5DD"/>
<path d="M258 726V726.685H258.685V726H258ZM257.315 660V726H258.685V660H257.315ZM258 725.315H192V726.685H258V725.315Z" fill="#D0D5DD"/>
<path d="M324 726V726.685H324.685V726H324ZM323.315 660V726H324.685V660H323.315ZM324 725.315H258V726.685H324V725.315Z" fill="#D0D5DD"/>
<path d="M390 726V726.685H390.685V726H390ZM389.315 660V726H390.685V660H389.315ZM390 725.315H324V726.685H390V725.315Z" fill="#D0D5DD"/>
<path d="M456 726V726.685H456.685V726H456ZM455.315 660V726H456.685V660H455.315ZM456 725.315H390V726.685H456V725.315Z" fill="#D0D5DD"/>
<path d="M456 660H522V726H456V660Z" fill="#F6F5FF"/>
<mask id="mask21_224_167" style="mask-type:luminance" maskUnits="userSpaceOnUse" x="456" y="660" width="66" height="66">
<path d="M456 660H522V726H456V660Z" fill="#D0D5DD"/>
</mask>
<g mask="url(#mask21_224_167)">
<path d="M522 726V726.685H522.685V726H522ZM521.315 660V726H522.685V660H521.315ZM522 725.315H456V726.685H522V725.315Z" fill="#D0D5DD"/>
</g>
<path d="M588 726V726.685H588.685V726H588ZM587.315 660V726H588.685V660H587.315ZM588 725.315H522V726.685H588V725.315Z" fill="#D0D5DD"/>
<path d="M654 726V726.685H654.685V726H654ZM653.315 660V726H654.685V660H653.315ZM654 725.315H588V726.685H654V725.315Z" fill="#D0D5DD"/>
<path d="M720 726V726.685H720.685V726H720ZM719.315 660V726H720.685V660H719.315ZM720 725.315H654V726.685H720V725.315Z" fill="#D0D5DD"/>
<path d="M720 660H786V726H720V660Z" fill="#F6F5FF"/>
<mask id="mask22_224_167" style="mask-type:luminance" maskUnits="userSpaceOnUse" x="720" y="660" width="66" height="66">
<path d="M720 660H786V726H720V660Z" fill="#D0D5DD"/>
</mask>
<g mask="url(#mask22_224_167)">
<path d="M786 726V726.685H786.685V726H786ZM785.315 660V726H786.685V660H785.315ZM786 725.315H720V726.685H786V725.315Z" fill="#D0D5DD"/>
</g>
<path d="M852 726V726.685H852.685V726H852ZM851.315 660V726H852.685V660H851.315ZM852 725.315H786V726.685H852V725.315Z" fill="#D0D5DD"/>
<path d="M918 726V726.685H918.685V726H918ZM917.315 660V726H918.685V660H917.315ZM918 725.315H852V726.685H918V725.315Z" fill="#D0D5DD"/>
<path d="M984 726V726.685H984.685V726H984ZM983.315 660V726H984.685V660H983.315ZM984 725.315H918V726.685H984V725.315Z" fill="#D0D5DD"/>
<path d="M1050 726V726.685H1050.68V726H1050ZM1049.32 660V726H1050.68V660H1049.32ZM1050 725.315H984V726.685H1050V725.315Z" fill="#D0D5DD"/>
<path d="M1116 726V726.685H1116.68V726H1116ZM1115.32 660V726H1116.68V660H1115.32ZM1116 725.315H1050V726.685H1116V725.315Z" fill="#D0D5DD"/>
<path d="M1182 726V726.685H1182.68V726H1182ZM1181.32 660V726H1182.68V660H1181.32ZM1182 725.315H1116V726.685H1182V725.315Z" fill="#D0D5DD"/>
<path d="M1248 726V726.685H1248.68V726H1248ZM1247.32 660V726H1248.68V660H1247.32ZM1248 725.315H1182V726.685H1248V725.315Z" fill="#D0D5DD"/>
<path d="M1314 726V726.685H1314.68V726H1314ZM1313.32 660V726H1314.68V660H1313.32ZM1314 725.315H1248V726.685H1314V725.315Z" fill="#D0D5DD"/>
<path d="M1380 726V726.685H1380.68V726H1380ZM1379.32 660V726H1380.68V660H1379.32ZM1380 725.315H1314V726.685H1380V725.315Z" fill="#D0D5DD"/>
<path d="M126 792V792.685H126.685V792H126ZM125.315 726V792H126.685V726H125.315ZM126 791.315H60V792.685H126V791.315Z" fill="#D0D5DD"/>
<path d="M192 792V792.685H192.685V792H192ZM191.315 726V792H192.685V726H191.315ZM192 791.315H126V792.685H192V791.315Z" fill="#D0D5DD"/>
<path d="M192 726H258V792H192V726Z" fill="#F2F4F7"/>
<mask id="mask23_224_167" style="mask-type:luminance" maskUnits="userSpaceOnUse" x="192" y="726" width="66" height="66">
<path d="M192 726H258V792H192V726Z" fill="#D0D5DD"/>
</mask>
<g mask="url(#mask23_224_167)">
<path d="M258 792V792.685H258.685V792H258ZM257.315 726V792H258.685V726H257.315ZM258 791.315H192V792.685H258V791.315Z" fill="#D0D5DD"/>
</g>
<path d="M324 792V792.685H324.685V792H324ZM323.315 726V792H324.685V726H323.315ZM324 791.315H258V792.685H324V791.315Z" fill="#D0D5DD"/>
<path d="M390 792V792.685H390.685V792H390ZM389.315 726V792H390.685V726H389.315ZM390 791.315H324V792.685H390V791.315Z" fill="#D0D5DD"/>
<path d="M456 792V792.685H456.685V792H456ZM455.315 726V792H456.685V726H455.315ZM456 791.315H390V792.685H456V791.315Z" fill="#D0D5DD"/>
<path d="M522 792V792.685H522.685V792H522ZM521.315 726V792H522.685V726H521.315ZM522 791.315H456V792.685H522V791.315Z" fill="#D0D5DD"/>
<path d="M588 792V792.685H588.685V792H588ZM587.315 726V792H588.685V726H587.315ZM588 791.315H522V792.685H588V791.315Z" fill="#D0D5DD"/>
<path d="M654 792V792.685H654.685V792H654ZM653.315 726V792H654.685V726H653.315ZM654 791.315H588V792.685H654V791.315Z" fill="#D0D5DD"/>
<path d="M720 792V792.685H720.685V792H720ZM719.315 726V792H720.685V726H719.315ZM720 791.315H654V792.685H720V791.315Z" fill="#D0D5DD"/>
<path d="M786 792V792.685H786.685V792H786ZM785.315 726V792H786.685V726H785.315ZM786 791.315H720V792.685H786V791.315Z" fill="#D0D5DD"/>
<path d="M852 792V792.685H852.685V792H852ZM851.315 726V792H852.685V726H851.315ZM852 791.315H786V792.685H852V791.315Z" fill="#D0D5DD"/>
<path d="M918 792V792.685H918.685V792H918ZM917.315 726V792H918.685V726H917.315ZM918 791.315H852V792.685H918V791.315Z" fill="#D0D5DD"/>
<path d="M984 792V792.685H984.685V792H984ZM983.315 726V792H984.685V726H983.315ZM984 791.315H918V792.685H984V791.315Z" fill="#D0D5DD"/>
<path d="M984 726H1050V792H984V726Z" fill="#F2F4F7"/>
<mask id="mask24_224_167" style="mask-type:luminance" maskUnits="userSpaceOnUse" x="984" y="726" width="66" height="66">
<path d="M984 726H1050V792H984V726Z" fill="#D0D5DD"/>
</mask>
<g mask="url(#mask24_224_167)">
<path d="M1050 792V792.685H1050.68V792H1050ZM1049.32 726V792H1050.68V726H1049.32ZM1050 791.315H984V792.685H1050V791.315Z" fill="#D0D5DD"/>
</g>
<path d="M1116 792V792.685H1116.68V792H1116ZM1115.32 726V792H1116.68V726H1115.32ZM1116 791.315H1050V792.685H1116V791.315Z" fill="#D0D5DD"/>
<path d="M1182 792V792.685H1182.68V792H1182ZM1181.32 726V792H1182.68V726H1181.32ZM1182 791.315H1116V792.685H1182V791.315Z" fill="#D0D5DD"/>
<path d="M1248 792V792.685H1248.68V792H1248ZM1247.32 726V792H1248.68V726H1247.32ZM1248 791.315H1182V792.685H1248V791.315Z" fill="#D0D5DD"/>
<path d="M1314 792V792.685H1314.68V792H1314ZM1313.32 726V792H1314.68V726H1313.32ZM1314 791.315H1248V792.685H1314V791.315Z" fill="#D0D5DD"/>
<path d="M1380 792V792.685H1380.68V792H1380ZM1379.32 726V792H1380.68V726H1379.32ZM1380 791.315H1314V792.685H1380V791.315Z" fill="#D0D5DD"/>
<path d="M126 858V858.685H126.685V858H126ZM125.315 792V858H126.685V792H125.315ZM126 857.315H60V858.685H126V857.315Z" fill="#D0D5DD"/>
<path d="M192 858V858.685H192.685V858H192ZM191.315 792V858H192.685V792H191.315ZM192 857.315H126V858.685H192V857.315Z" fill="#D0D5DD"/>
<path d="M258 858V858.685H258.685V858H258ZM257.315 792V858H258.685V792H257.315ZM258 857.315H192V858.685H258V857.315Z" fill="#D0D5DD"/>
<path d="M324 858V858.685H324.685V858H324ZM323.315 792V858H324.685V792H323.315ZM324 857.315H258V858.685H324V857.315Z" fill="#D0D5DD"/>
<path d="M390 858V858.685H390.685V858H390ZM389.315 792V858H390.685V792H389.315ZM390 857.315H324V858.685H390V857.315Z" fill="#D0D5DD"/>
<path d="M456 858V858.685H456.685V858H456ZM455.315 792V858H456.685V792H455.315ZM456 857.315H390V858.685H456V857.315Z" fill="#D0D5DD"/>
<path d="M522 858V858.685H522.685V858H522ZM521.315 792V858H522.685V792H521.315ZM522 857.315H456V858.685H522V857.315Z" fill="#D0D5DD"/>
<path d="M588 858V858.685H588.685V858H588ZM587.315 792V858H588.685V792H587.315ZM588 857.315H522V858.685H588V857.315Z" fill="#D0D5DD"/>
<path d="M588 792H654V858H588V792Z" fill="#F2F4F7"/>
<mask id="mask25_224_167" style="mask-type:luminance" maskUnits="userSpaceOnUse" x="588" y="792" width="66" height="66">
<path d="M588 792H654V858H588V792Z" fill="#D0D5DD"/>
</mask>
<g mask="url(#mask25_224_167)">
<path d="M654 858V858.685H654.685V858H654ZM653.315 792V858H654.685V792H653.315ZM654 857.315H588V858.685H654V857.315Z" fill="#D0D5DD"/>
</g>
<path d="M720 858V858.685H720.685V858H720ZM719.315 792V858H720.685V792H719.315ZM720 857.315H654V858.685H720V857.315Z" fill="#D0D5DD"/>
<path d="M786 858V858.685H786.685V858H786ZM785.315 792V858H786.685V792H785.315ZM786 857.315H720V858.685H786V857.315Z" fill="#D0D5DD"/>
<path d="M852 858V858.685H852.685V858H852ZM851.315 792V858H852.685V792H851.315ZM852 857.315H786V858.685H852V857.315Z" fill="#D0D5DD"/>
<path d="M918 858V858.685H918.685V858H918ZM917.315 792V858H918.685V792H917.315ZM918 857.315H852V858.685H918V857.315Z" fill="#D0D5DD"/>
<path d="M984 858V858.685H984.685V858H984ZM983.315 792V858H984.685V792H983.315ZM984 857.315H918V858.685H984V857.315Z" fill="#D0D5DD"/>
<path d="M1050 858V858.685H1050.68V858H1050ZM1049.32 792V858H1050.68V792H1049.32ZM1050 857.315H984V858.685H1050V857.315Z" fill="#D0D5DD"/>
<path d="M1116 858V858.685H1116.68V858H1116ZM1115.32 792V858H1116.68V792H1115.32ZM1116 857.315H1050V858.685H1116V857.315Z" fill="#D0D5DD"/>
<path d="M1182 858V858.685H1182.68V858H1182ZM1181.32 792V858H1182.68V792H1181.32ZM1182 857.315H1116V858.685H1182V857.315Z" fill="#D0D5DD"/>
<path d="M1248 858V858.685H1248.68V858H1248ZM1247.32 792V858H1248.68V792H1247.32ZM1248 857.315H1182V858.685H1248V857.315Z" fill="#D0D5DD"/>
<path d="M1248 792H1314V858H1248V792Z" fill="#F2F4F7"/>
<mask id="mask26_224_167" style="mask-type:luminance" maskUnits="userSpaceOnUse" x="1248" y="792" width="66" height="66">
<path d="M1248 792H1314V858H1248V792Z" fill="#D0D5DD"/>
</mask>
<g mask="url(#mask26_224_167)">
<path d="M1314 858V858.685H1314.68V858H1314ZM1313.32 792V858H1314.68V792H1313.32ZM1314 857.315H1248V858.685H1314V857.315Z" fill="#D0D5DD"/>
</g>
<path d="M1380 858V858.685H1380.68V858H1380ZM1379.32 792V858H1380.68V792H1379.32ZM1380 857.315H1314V858.685H1380V857.315Z" fill="#D0D5DD"/>
<path d="M126 924V924.685H126.685V924H126ZM125.315 858V924H126.685V858H125.315ZM126 923.315H60V924.685H126V923.315Z" fill="#D0D5DD"/>
<path d="M192 924V924.685H192.685V924H192ZM191.315 858V924H192.685V858H191.315ZM192 923.315H126V924.685H192V923.315Z" fill="#D0D5DD"/>
<path d="M258 924V924.685H258.685V924H258ZM257.315 858V924H258.685V858H257.315ZM258 923.315H192V924.685H258V923.315Z" fill="#D0D5DD"/>
<path d="M324 924V924.685H324.685V924H324ZM323.315 858V924H324.685V858H323.315ZM324 923.315H258V924.685H324V923.315Z" fill="#D0D5DD"/>
<path d="M390 924V924.685H390.685V924H390ZM389.315 858V924H390.685V858H389.315ZM390 923.315H324V924.685H390V923.315Z" fill="#D0D5DD"/>
<path d="M390 858H456V924H390V858Z" fill="#F2F4F7"/>
<mask id="mask27_224_167" style="mask-type:luminance" maskUnits="userSpaceOnUse" x="390" y="858" width="66" height="66">
<path d="M390 858H456V924H390V858Z" fill="#D0D5DD"/>
</mask>
<g mask="url(#mask27_224_167)">
<path d="M456 924V924.685H456.685V924H456ZM455.315 858V924H456.685V858H455.315ZM456 923.315H390V924.685H456V923.315Z" fill="#D0D5DD"/>
</g>
<path d="M522 924V924.685H522.685V924H522ZM521.315 858V924H522.685V858H521.315ZM522 923.315H456V924.685H522V923.315Z" fill="#D0D5DD"/>
<path d="M588 924V924.685H588.685V924H588ZM587.315 858V924H588.685V858H587.315ZM588 923.315H522V924.685H588V923.315Z" fill="#D0D5DD"/>
<path d="M654 924V924.685H654.685V924H654ZM653.315 858V924H654.685V858H653.315ZM654 923.315H588V924.685H654V923.315Z" fill="#D0D5DD"/>
<path d="M720 924V924.685H720.685V924H720ZM719.315 858V924H720.685V858H719.315ZM720 923.315H654V924.685H720V923.315Z" fill="#D0D5DD"/>
<path d="M786 924V924.685H786.685V924H786ZM785.315 858V924H786.685V858H785.315ZM786 923.315H720V924.685H786V923.315Z" fill="#D0D5DD"/>
<path d="M786 858H852V924H786V858Z" fill="#F2F4F7"/>
<mask id="mask28_224_167" style="mask-type:luminance" maskUnits="userSpaceOnUse" x="786" y="858" width="66" height="66">
<path d="M786 858H852V924H786V858Z" fill="#D0D5DD"/>
</mask>
<g mask="url(#mask28_224_167)">
<path d="M852 924V924.685H852.685V924H852ZM851.315 858V924H852.685V858H851.315ZM852 923.315H786V924.685H852V923.315Z" fill="#D0D5DD"/>
</g>
<path d="M918 924V924.685H918.685V924H918ZM917.315 858V924H918.685V858H917.315ZM918 923.315H852V924.685H918V923.315Z" fill="#D0D5DD"/>
<path d="M984 924V924.685H984.685V924H984ZM983.315 858V924H984.685V858H983.315ZM984 923.315H918V924.685H984V923.315Z" fill="#D0D5DD"/>
<path d="M1050 924V924.685H1050.68V924H1050ZM1049.32 858V924H1050.68V858H1049.32ZM1050 923.315H984V924.685H1050V923.315Z" fill="#D0D5DD"/>
<path d="M1116 924V924.685H1116.68V924H1116ZM1115.32 858V924H1116.68V858H1115.32ZM1116 923.315H1050V924.685H1116V923.315Z" fill="#D0D5DD"/>
<path d="M1182 924V924.685H1182.68V924H1182ZM1181.32 858V924H1182.68V858H1181.32ZM1182 923.315H1116V924.685H1182V923.315Z" fill="#D0D5DD"/>
<path d="M1248 924V924.685H1248.68V924H1248ZM1247.32 858V924H1248.68V858H1247.32ZM1248 923.315H1182V924.685H1248V923.315Z" fill="#D0D5DD"/>
<path d="M1314 924V924.685H1314.68V924H1314ZM1313.32 858V924H1314.68V858H1313.32ZM1314 923.315H1248V924.685H1314V923.315Z" fill="#D0D5DD"/>
<path d="M1380 924V924.685H1380.68V924H1380ZM1379.32 858V924H1380.68V858H1379.32ZM1380 923.315H1314V924.685H1380V923.315Z" fill="#D0D5DD"/>
<path d="M126 990V990.685H126.685V990H126ZM125.315 924V990H126.685V924H125.315ZM126 989.315H60V990.685H126V989.315Z" fill="#D0D5DD"/>
<path d="M192 990V990.685H192.685V990H192ZM191.315 924V990H192.685V924H191.315ZM192 989.315H126V990.685H192V989.315Z" fill="#D0D5DD"/>
<path d="M258 990V990.685H258.685V990H258ZM257.315 924V990H258.685V924H257.315ZM258 989.315H192V990.685H258V989.315Z" fill="#D0D5DD"/>
<path d="M258 924H324V990H258V924Z" fill="#F2F4F7"/>
<mask id="mask29_224_167" style="mask-type:luminance" maskUnits="userSpaceOnUse" x="258" y="924" width="66" height="66">
<path d="M258 924H324V990H258V924Z" fill="#D0D5DD"/>
</mask>
<g mask="url(#mask29_224_167)">
<path d="M324 990V990.685H324.685V990H324ZM323.315 924V990H324.685V924H323.315ZM324 989.315H258V990.685H324V989.315Z" fill="#D0D5DD"/>
</g>
<path d="M390 990V990.685H390.685V990H390ZM389.315 924V990H390.685V924H389.315ZM390 989.315H324V990.685H390V989.315Z" fill="#D0D5DD"/>
<path d="M456 990V990.685H456.685V990H456ZM455.315 924V990H456.685V924H455.315ZM456 989.315H390V990.685H456V989.315Z" fill="#D0D5DD"/>
<path d="M522 990V990.685H522.685V990H522ZM521.315 924V990H522.685V924H521.315ZM522 989.315H456V990.685H522V989.315Z" fill="#D0D5DD"/>
<path d="M588 990V990.685H588.685V990H588ZM587.315 924V990H588.685V924H587.315ZM588 989.315H522V990.685H588V989.315Z" fill="#D0D5DD"/>
<path d="M654 990V990.685H654.685V990H654ZM653.315 924V990H654.685V924H653.315ZM654 989.315H588V990.685H654V989.315Z" fill="#D0D5DD"/>
<path d="M720 990V990.685H720.685V990H720ZM719.315 924V990H720.685V924H719.315ZM720 989.315H654V990.685H720V989.315Z" fill="#D0D5DD"/>
<path d="M786 990V990.685H786.685V990H786ZM785.315 924V990H786.685V924H785.315ZM786 989.315H720V990.685H786V989.315Z" fill="#D0D5DD"/>
<path d="M852 990V990.685H852.685V990H852ZM851.315 924V990H852.685V924H851.315ZM852 989.315H786V990.685H852V989.315Z" fill="#D0D5DD"/>
<path d="M918 990V990.685H918.685V990H918ZM917.315 924V990H918.685V924H917.315ZM918 989.315H852V990.685H918V989.315Z" fill="#D0D5DD"/>
<path d="M984 990V990.685H984.685V990H984ZM983.315 924V990H984.685V924H983.315ZM984 989.315H918V990.685H984V989.315Z" fill="#D0D5DD"/>
<path d="M1050 990V990.685H1050.68V990H1050ZM1049.32 924V990H1050.68V924H1049.32ZM1050 989.315H984V990.685H1050V989.315Z" fill="#D0D5DD"/>
<path d="M1116 990V990.685H1116.68V990H1116ZM1115.32 924V990H1116.68V924H1115.32ZM1116 989.315H1050V990.685H1116V989.315Z" fill="#D0D5DD"/>
<path d="M1116 924H1182V990H1116V924Z" fill="#F2F4F7"/>
<mask id="mask30_224_167" style="mask-type:luminance" maskUnits="userSpaceOnUse" x="1116" y="924" width="66" height="66">
<path d="M1116 924H1182V990H1116V924Z" fill="#D0D5DD"/>
</mask>
<g mask="url(#mask30_224_167)">
<path d="M1182 990V990.685H1182.68V990H1182ZM1181.32 924V990H1182.68V924H1181.32ZM1182 989.315H1116V990.685H1182V989.315Z" fill="#D0D5DD"/>
</g>
<path d="M1248 990V990.685H1248.68V990H1248ZM1247.32 924V990H1248.68V924H1247.32ZM1248 989.315H1182V990.685H1248V989.315Z" fill="#D0D5DD"/>
<path d="M1314 990V990.685H1314.68V990H1314ZM1313.32 924V990H1314.68V924H1313.32ZM1314 989.315H1248V990.685H1314V989.315Z" fill="#D0D5DD"/>
<path d="M1380 990V990.685H1380.68V990H1380ZM1379.32 924V990H1380.68V924H1379.32ZM1380 989.315H1314V990.685H1380V989.315Z" fill="#D0D5DD"/>
</g>
</g>
</g>
</g>
<defs>
<radialGradient id="paint0_radial_224_167" cx="0" cy="0" r="1" gradientUnits="userSpaceOnUse" gradientTransform="translate(720.333 383) rotate(90) scale(712.5 1106.65)">
<stop/>
<stop offset="0.699008" stop-opacity="0"/>
</radialGradient>
<clipPath id="clip0_224_167">
<rect width="1440" height="1184" fill="white"/>
</clipPath>
</defs>
</svg>
