<svg width="48" height="48" viewBox="0 0 48 48" fill="none" xmlns="http://www.w3.org/2000/svg">
    <path d="M24.0001 44.4514C35.2949 44.4514 44.4511 35.2952 44.4511 24.0004C44.4511 12.7056 35.2949 3.54932 24.0001 3.54932C12.7053 3.54932 3.54907 12.7056 3.54907 24.0004C3.54907 35.2952 12.7053 44.4514 24.0001 44.4514Z" fill="url(#paint0_linear_9_76)"/>
    <path d="M16.803 48.0001C26.0831 48.0001 33.606 40.4771 33.606 31.1971C33.606 21.917 26.0831 14.394 16.803 14.394C7.52297 14.394 0 21.917 0 31.1971C0 40.4771 7.52297 48.0001 16.803 48.0001Z" fill="url(#paint1_linear_9_76)"/>
    <path d="M31.1969 33.6061C40.477 33.6061 48 26.0831 48 16.803C48 7.52298 40.477 0 31.1969 0C21.9169 0 14.3939 7.52298 14.3939 16.803C14.3939 26.0831 21.9169 33.6061 31.1969 33.6061Z" fill="url(#paint2_linear_9_76)"/>
    <defs>
        <linearGradient id="paint0_linear_9_76" x1="29.7875" y1="43.6213" x2="18.2135" y2="4.38099" gradientUnits="userSpaceOnUse">
            <stop stop-color="#00BEFF"/>
            <stop offset="0.12" stop-color="#07C0FF"/>
            <stop offset="0.31" stop-color="#1AC5FF"/>
            <stop offset="0.52" stop-color="#3ACDFF"/>
            <stop offset="0.76" stop-color="#66D8FF"/>
            <stop offset="1" stop-color="#99E5FF"/>
        </linearGradient>
        <linearGradient id="paint1_linear_9_76" x1="21.5567" y1="47.3163" x2="12.0489" y2="15.0764" gradientUnits="userSpaceOnUse">
            <stop stop-color="#6000ED"/>
            <stop offset="0.02" stop-color="#6204ED" stop-opacity="0.96"/>
            <stop offset="0.23" stop-color="#7421EF" stop-opacity="0.68"/>
            <stop offset="0.43" stop-color="#843AF1" stop-opacity="0.43"/>
            <stop offset="0.61" stop-color="#8F4DF2" stop-opacity="0.25"/>
            <stop offset="0.76" stop-color="#985BF3" stop-opacity="0.11"/>
            <stop offset="0.9" stop-color="#9D63F4" stop-opacity="0.03"/>
            <stop offset="0.99" stop-color="#9F66F4" stop-opacity="0"/>
        </linearGradient>
        <linearGradient id="paint2_linear_9_76" x1="35.9519" y1="32.921" x2="26.4419" y2="0.683212" gradientUnits="userSpaceOnUse">
            <stop offset="0.01" stop-color="#9F66F4" stop-opacity="0"/>
            <stop offset="0.1" stop-color="#9D63F4" stop-opacity="0.03"/>
            <stop offset="0.24" stop-color="#985BF3" stop-opacity="0.11"/>
            <stop offset="0.39" stop-color="#8F4DF2" stop-opacity="0.25"/>
            <stop offset="0.57" stop-color="#843AF1" stop-opacity="0.43"/>
            <stop offset="0.77" stop-color="#7421EF" stop-opacity="0.68"/>
            <stop offset="0.98" stop-color="#6204ED" stop-opacity="0.96"/>
            <stop offset="1" stop-color="#6000ED"/>
        </linearGradient>
    </defs>
</svg>
