<svg width="25" height="24" viewBox="0 0 25 24" fill="none" xmlns="http://www.w3.org/2000/svg">
<g id="ada" opacity="0.7" clip-path="url(#clip0_85_18378)">
<g id="Group">
<path id="Vector" d="M12.75 24C19.3774 24 24.75 18.6274 24.75 12C24.75 5.37258 19.3774 0 12.75 0C6.12258 0 0.75 5.37258 0.75 12C0.75 18.6274 6.12258 24 12.75 24Z" fill="#0D1E30"/>
<g id="Vector_2" filter="url(#filter0_d_85_18378)">
<path d="M12.5438 4.54493C12.903 4.35968 13.3418 4.78793 13.1513 5.14118C13.0395 5.42918 12.6188 5.50568 12.4043 5.28593C12.177 5.07593 12.2513 4.65893 12.5438 4.54418V4.54493ZM8.67753 4.95443C8.89578 4.86593 9.17253 5.06243 9.15003 5.29718C9.17253 5.55068 8.85753 5.73818 8.63478 5.61743C8.34003 5.50493 8.37378 5.03393 8.67753 4.95443ZM16.596 5.62418C16.2548 5.58368 16.2008 5.05568 16.5285 4.94918C16.7835 4.82768 17.0175 5.05643 17.055 5.29418C17.001 5.49668 16.8285 5.68268 16.596 5.62418ZM9.55728 6.57293C9.92253 6.34568 10.443 6.68393 10.3868 7.10168C10.368 7.52243 9.79953 7.76693 9.47853 7.48193C9.16803 7.25843 9.21528 6.74543 9.55728 6.57293ZM15.1298 6.81443C15.2925 6.40193 15.9525 6.38843 16.1378 6.79043C16.3215 7.10318 16.0958 7.49093 15.7695 7.59743C15.3368 7.67693 14.9265 7.21643 15.1298 6.81443ZM12.078 7.57418C12.0743 7.21868 12.4028 6.95468 12.7455 6.92993C12.9735 6.97493 13.221 7.07018 13.3185 7.29593C13.5008 7.60793 13.3388 8.03618 13.011 8.17943C12.861 8.26193 12.6825 8.23118 12.519 8.22143C12.2693 8.10143 12.0585 7.86368 12.078 7.57418ZM6.32853 8.09168C6.66228 7.88918 7.11228 8.25668 6.98553 8.61368C6.91653 8.92193 6.49503 9.04718 6.25428 8.85068C5.99703 8.66618 6.03753 8.22293 6.32928 8.09093L6.32853 8.09168ZM18.675 8.09018C18.9578 7.87418 19.425 8.12243 19.3905 8.47343C19.41 8.79368 19.0058 9.03593 18.7253 8.87093C18.4163 8.73368 18.384 8.26568 18.675 8.09093V8.09018ZM13.695 8.72843C14.1615 8.56343 14.7165 8.76068 14.982 9.17093C15.333 9.67118 15.147 10.4332 14.6018 10.7204C14.0378 11.0602 13.2135 10.7729 13.0043 10.1519C12.768 9.59693 13.113 8.90243 13.6943 8.72843H13.695ZM10.9553 8.78318C11.4728 8.54318 12.1695 8.74418 12.4193 9.26468C12.7133 9.77168 12.486 10.4774 11.9603 10.7392C11.4338 11.0339 10.6905 10.8104 10.4363 10.2667C10.1505 9.74018 10.404 9.02543 10.9553 8.78318ZM8.21253 9.70493C8.25228 9.37718 8.56653 9.16343 8.88378 9.14093C9.04923 9.1584 9.20386 9.23149 9.32239 9.34825C9.44091 9.465 9.51632 9.61851 9.53628 9.78368C9.51378 10.1212 9.24903 10.4497 8.88603 10.4482C8.48628 10.4819 8.13603 10.0904 8.21253 9.70493ZM16.314 9.21293C16.7243 8.97818 17.2935 9.31943 17.2755 9.78293C17.3033 10.2742 16.6733 10.6199 16.2653 10.3319C15.8408 10.0919 15.8738 9.41693 16.314 9.21293ZM9.84153 10.9432C10.32 10.8134 10.869 11.0354 11.1038 11.4689C11.361 11.9054 11.256 12.5114 10.8563 12.8324C10.3425 13.3019 9.39678 13.1129 9.12378 12.4724C8.80953 11.8852 9.19128 11.0977 9.84078 10.9424L9.84153 10.9432ZM15.0368 10.9409C15.5025 10.8097 16.05 10.9859 16.3005 11.4037C16.632 11.8814 16.4738 12.5947 15.981 12.9022C15.4635 13.2599 14.664 13.0724 14.379 12.5129C14.034 11.9347 14.3813 11.1172 15.0368 10.9409ZM6.75678 11.4854C7.17078 11.3317 7.62978 11.7809 7.46178 12.1852C7.35978 12.5527 6.83253 12.6892 6.56028 12.4177C6.24153 12.1627 6.35928 11.5964 6.75678 11.4854ZM17.9835 12.0719C17.9758 11.9068 18.0335 11.7453 18.1442 11.6226C18.2548 11.4998 18.4095 11.4257 18.5745 11.4164C18.858 11.4614 19.134 11.6864 19.1115 11.9902C19.1378 12.3914 18.6465 12.6637 18.2985 12.4754C18.1358 12.3937 18.0525 12.2294 17.9835 12.0719ZM4.72053 11.6849C4.96953 11.5777 5.27778 11.7899 5.22078 12.0622C5.20728 12.3704 4.74453 12.4897 4.57503 12.2317C4.42503 12.0524 4.51503 11.7772 4.72053 11.6842V11.6849ZM20.4323 11.6782C20.6078 11.5559 20.8898 11.6437 20.9588 11.8454C21.0765 12.0659 20.8605 12.3674 20.6085 12.3307C20.2545 12.3622 20.1405 11.8319 20.4323 11.6782ZM11.1945 13.1579C11.85 12.9907 12.555 13.5284 12.5595 14.1929C12.6015 14.8642 11.907 15.4589 11.2365 15.3044C10.7175 15.2219 10.3103 14.7299 10.3275 14.2147C10.326 13.7212 10.704 13.2622 11.1945 13.1579ZM13.791 13.1572C14.4563 12.9742 15.1823 13.5217 15.1718 14.2012C15.207 14.8597 14.5343 15.4349 13.8773 15.3037C13.2585 15.2257 12.8025 14.5574 12.975 13.9664C13.062 13.5734 13.3965 13.2539 13.791 13.1564V13.1572ZM8.78403 13.5659C9.24453 13.4887 9.67653 13.9934 9.48978 14.4239C9.35328 14.8829 8.67528 15.0067 8.37528 14.6324C8.02428 14.2724 8.28678 13.6154 8.78403 13.5659ZM16.3995 13.5862C16.8105 13.4167 17.3145 13.7662 17.283 14.2049C17.2995 14.6872 16.677 15.0202 16.2758 14.7382C15.8205 14.4854 15.9038 13.7407 16.3995 13.5862ZM18.528 15.6862C18.3675 15.3914 18.6593 15.0007 18.993 15.0554C19.158 15.0524 19.2743 15.1807 19.38 15.2887C19.4018 15.4634 19.4385 15.6719 19.2908 15.8062C19.0905 16.0559 18.6368 15.9847 18.528 15.6862ZM6.32703 15.1372C6.63828 14.9339 7.08603 15.2377 7.01553 15.5947C6.97803 15.9119 6.57303 16.0927 6.30678 15.9127C6.02028 15.7499 6.03078 15.2857 6.32703 15.1372ZM12.4718 15.7994C12.879 15.6232 13.398 15.9719 13.359 16.4129C13.389 16.9004 12.7478 17.2379 12.3495 16.9454C11.907 16.6942 11.9813 15.9547 12.4718 15.7994ZM9.62628 16.4527C9.97278 16.2734 10.4378 16.5832 10.4063 16.9657C10.4168 17.2792 10.1063 17.5462 9.79128 17.4997C9.53103 17.4944 9.36153 17.2642 9.27753 17.0459C9.28203 16.8082 9.38178 16.5434 9.62628 16.4534V16.4527ZM15.3908 16.4587C15.7478 16.2412 16.2548 16.5532 16.221 16.9612C16.23 17.3887 15.657 17.6617 15.3248 17.3812C15.0038 17.1614 15.0428 16.6334 15.3908 16.4587ZM16.3935 18.8962C16.2345 18.6607 16.4213 18.3764 16.6785 18.3224C16.8863 18.3637 17.106 18.5174 17.0618 18.7529C17.0318 19.0732 16.5563 19.1707 16.3935 18.8969V18.8962ZM8.43528 18.6914C8.49828 18.5039 8.65128 18.3187 8.87553 18.3674C9.20178 18.3899 9.29853 18.8744 9.01278 19.0237C8.75628 19.1939 8.45778 18.9607 8.43528 18.6914ZM12.2753 18.9067C12.3375 18.6292 12.7013 18.4949 12.9413 18.6419C13.1003 18.7094 13.1468 18.8834 13.1873 19.0319C13.1659 19.1091 13.1459 19.1866 13.1273 19.2644C13.029 19.3784 12.9023 19.4932 12.7388 19.4894C12.435 19.5247 12.1605 19.1864 12.2745 18.9067H12.2753Z" fill="black"/>
</g>
<path id="Vector_3" d="M12.5438 4.54493C12.903 4.35968 13.3418 4.78793 13.1513 5.14118C13.0395 5.42918 12.6188 5.50568 12.4043 5.28593C12.177 5.07593 12.2513 4.65893 12.5438 4.54418V4.54493ZM8.67753 4.95443C8.89578 4.86593 9.17253 5.06243 9.15003 5.29718C9.17253 5.55068 8.85753 5.73818 8.63478 5.61743C8.34003 5.50493 8.37378 5.03393 8.67753 4.95443ZM16.596 5.62418C16.2548 5.58368 16.2008 5.05568 16.5285 4.94918C16.7835 4.82768 17.0175 5.05643 17.055 5.29418C17.001 5.49668 16.8285 5.68268 16.596 5.62418ZM9.55728 6.57293C9.92253 6.34568 10.443 6.68393 10.3868 7.10168C10.368 7.52243 9.79953 7.76693 9.47853 7.48193C9.16803 7.25843 9.21528 6.74543 9.55728 6.57293ZM15.1298 6.81443C15.2925 6.40193 15.9525 6.38843 16.1378 6.79043C16.3215 7.10318 16.0958 7.49093 15.7695 7.59743C15.3368 7.67693 14.9265 7.21643 15.1298 6.81443ZM12.078 7.57418C12.0743 7.21868 12.4028 6.95468 12.7455 6.92993C12.9735 6.97493 13.221 7.07018 13.3185 7.29593C13.5008 7.60793 13.3388 8.03618 13.011 8.17943C12.861 8.26193 12.6825 8.23118 12.519 8.22143C12.2693 8.10143 12.0585 7.86368 12.078 7.57418ZM6.32853 8.09168C6.66228 7.88918 7.11228 8.25668 6.98553 8.61368C6.91653 8.92193 6.49503 9.04718 6.25428 8.85068C5.99703 8.66618 6.03753 8.22293 6.32928 8.09093L6.32853 8.09168ZM18.675 8.09018C18.9578 7.87418 19.425 8.12243 19.3905 8.47343C19.41 8.79368 19.0058 9.03593 18.7253 8.87093C18.4163 8.73368 18.384 8.26568 18.675 8.09093V8.09018ZM13.695 8.72843C14.1615 8.56343 14.7165 8.76068 14.982 9.17093C15.333 9.67118 15.147 10.4332 14.6018 10.7204C14.0378 11.0602 13.2135 10.7729 13.0043 10.1519C12.768 9.59693 13.113 8.90243 13.6943 8.72843H13.695ZM10.9553 8.78318C11.4728 8.54318 12.1695 8.74418 12.4193 9.26468C12.7133 9.77168 12.486 10.4774 11.9603 10.7392C11.4338 11.0339 10.6905 10.8104 10.4363 10.2667C10.1505 9.74018 10.404 9.02543 10.9553 8.78318ZM8.21253 9.70493C8.25228 9.37718 8.56653 9.16343 8.88378 9.14093C9.04923 9.1584 9.20386 9.23149 9.32239 9.34825C9.44091 9.465 9.51632 9.61851 9.53628 9.78368C9.51378 10.1212 9.24903 10.4497 8.88603 10.4482C8.48628 10.4819 8.13603 10.0904 8.21253 9.70493ZM16.314 9.21293C16.7243 8.97818 17.2935 9.31943 17.2755 9.78293C17.3033 10.2742 16.6733 10.6199 16.2653 10.3319C15.8408 10.0919 15.8738 9.41693 16.314 9.21293ZM9.84153 10.9432C10.32 10.8134 10.869 11.0354 11.1038 11.4689C11.361 11.9054 11.256 12.5114 10.8563 12.8324C10.3425 13.3019 9.39678 13.1129 9.12378 12.4724C8.80953 11.8852 9.19128 11.0977 9.84078 10.9424L9.84153 10.9432ZM15.0368 10.9409C15.5025 10.8097 16.05 10.9859 16.3005 11.4037C16.632 11.8814 16.4738 12.5947 15.981 12.9022C15.4635 13.2599 14.664 13.0724 14.379 12.5129C14.034 11.9347 14.3813 11.1172 15.0368 10.9409ZM6.75678 11.4854C7.17078 11.3317 7.62978 11.7809 7.46178 12.1852C7.35978 12.5527 6.83253 12.6892 6.56028 12.4177C6.24153 12.1627 6.35928 11.5964 6.75678 11.4854ZM17.9835 12.0719C17.9758 11.9068 18.0335 11.7453 18.1442 11.6226C18.2548 11.4998 18.4095 11.4257 18.5745 11.4164C18.858 11.4614 19.134 11.6864 19.1115 11.9902C19.1378 12.3914 18.6465 12.6637 18.2985 12.4754C18.1358 12.3937 18.0525 12.2294 17.9835 12.0719ZM4.72053 11.6849C4.96953 11.5777 5.27778 11.7899 5.22078 12.0622C5.20728 12.3704 4.74453 12.4897 4.57503 12.2317C4.42503 12.0524 4.51503 11.7772 4.72053 11.6842V11.6849ZM20.4323 11.6782C20.6078 11.5559 20.8898 11.6437 20.9588 11.8454C21.0765 12.0659 20.8605 12.3674 20.6085 12.3307C20.2545 12.3622 20.1405 11.8319 20.4323 11.6782ZM11.1945 13.1579C11.85 12.9907 12.555 13.5284 12.5595 14.1929C12.6015 14.8642 11.907 15.4589 11.2365 15.3044C10.7175 15.2219 10.3103 14.7299 10.3275 14.2147C10.326 13.7212 10.704 13.2622 11.1945 13.1579ZM13.791 13.1572C14.4563 12.9742 15.1823 13.5217 15.1718 14.2012C15.207 14.8597 14.5343 15.4349 13.8773 15.3037C13.2585 15.2257 12.8025 14.5574 12.975 13.9664C13.062 13.5734 13.3965 13.2539 13.791 13.1564V13.1572ZM8.78403 13.5659C9.24453 13.4887 9.67653 13.9934 9.48978 14.4239C9.35328 14.8829 8.67528 15.0067 8.37528 14.6324C8.02428 14.2724 8.28678 13.6154 8.78403 13.5659ZM16.3995 13.5862C16.8105 13.4167 17.3145 13.7662 17.283 14.2049C17.2995 14.6872 16.677 15.0202 16.2758 14.7382C15.8205 14.4854 15.9038 13.7407 16.3995 13.5862ZM18.528 15.6862C18.3675 15.3914 18.6593 15.0007 18.993 15.0554C19.158 15.0524 19.2743 15.1807 19.38 15.2887C19.4018 15.4634 19.4385 15.6719 19.2908 15.8062C19.0905 16.0559 18.6368 15.9847 18.528 15.6862ZM6.32703 15.1372C6.63828 14.9339 7.08603 15.2377 7.01553 15.5947C6.97803 15.9119 6.57303 16.0927 6.30678 15.9127C6.02028 15.7499 6.03078 15.2857 6.32703 15.1372ZM12.4718 15.7994C12.879 15.6232 13.398 15.9719 13.359 16.4129C13.389 16.9004 12.7478 17.2379 12.3495 16.9454C11.907 16.6942 11.9813 15.9547 12.4718 15.7994ZM9.62628 16.4527C9.97278 16.2734 10.4378 16.5832 10.4063 16.9657C10.4168 17.2792 10.1063 17.5462 9.79128 17.4997C9.53103 17.4944 9.36153 17.2642 9.27753 17.0459C9.28203 16.8082 9.38178 16.5434 9.62628 16.4534V16.4527ZM15.3908 16.4587C15.7478 16.2412 16.2548 16.5532 16.221 16.9612C16.23 17.3887 15.657 17.6617 15.3248 17.3812C15.0038 17.1614 15.0428 16.6334 15.3908 16.4587ZM16.3935 18.8962C16.2345 18.6607 16.4213 18.3764 16.6785 18.3224C16.8863 18.3637 17.106 18.5174 17.0618 18.7529C17.0318 19.0732 16.5563 19.1707 16.3935 18.8969V18.8962ZM8.43528 18.6914C8.49828 18.5039 8.65128 18.3187 8.87553 18.3674C9.20178 18.3899 9.29853 18.8744 9.01278 19.0237C8.75628 19.1939 8.45778 18.9607 8.43528 18.6914ZM12.2753 18.9067C12.3375 18.6292 12.7013 18.4949 12.9413 18.6419C13.1003 18.7094 13.1468 18.8834 13.1873 19.0319C13.1659 19.1091 13.1459 19.1866 13.1273 19.2644C13.029 19.3784 12.9023 19.4932 12.7388 19.4894C12.435 19.5247 12.1605 19.1864 12.2745 18.9067H12.2753Z" fill="white"/>
</g>
</g>
<defs>
<filter id="filter0_d_85_18378" x="4.39128" y="4.4457" width="16.7096" height="15.2099" filterUnits="userSpaceOnUse" color-interpolation-filters="sRGB">
<feFlood flood-opacity="0" result="BackgroundImageFix"/>
<feColorMatrix in="SourceAlpha" type="matrix" values="0 0 0 0 0 0 0 0 0 0 0 0 0 0 0 0 0 0 127 0" result="hardAlpha"/>
<feOffset dy="0.0545455"/>
<feGaussianBlur stdDeviation="0.0545455"/>
<feColorMatrix type="matrix" values="0 0 0 0 0 0 0 0 0 0 0 0 0 0 0 0 0 0 0.204257 0"/>
<feBlend mode="normal" in2="BackgroundImageFix" result="effect1_dropShadow_85_18378"/>
<feBlend mode="normal" in="SourceGraphic" in2="effect1_dropShadow_85_18378" result="shape"/>
</filter>
<clipPath id="clip0_85_18378">
<rect width="24" height="24" fill="white" transform="translate(0.75)"/>
</clipPath>
</defs>
</svg>
